<?xml version="1.0" encoding="utf-8" standalone="no"?>
<!DOCTYPE svg PUBLIC "-//W3C//DTD SVG 1.1//EN"
  "http://www.w3.org/Graphics/SVG/1.1/DTD/svg11.dtd">
<svg xmlns:xlink="http://www.w3.org/1999/xlink" width="1088.39952pt" height="310.79952pt" viewBox="0 0 1088.39952 310.79952" xmlns="http://www.w3.org/2000/svg" version="1.1">
 <metadata>
  <rdf:RDF xmlns:dc="http://purl.org/dc/elements/1.1/" xmlns:cc="http://creativecommons.org/ns#" xmlns:rdf="http://www.w3.org/1999/02/22-rdf-syntax-ns#">
   <cc:Work>
    <dc:type rdf:resource="http://purl.org/dc/dcmitype/StillImage"/>
    <dc:date>2026-09-10T18:46:15.734924</dc:date>
    <dc:format>image/svg+xml</dc:format>
    <dc:creator>
     <cc:Agent>
      <dc:title>Matplotlib v3.11.1, https://matplotlib.org/</dc:title>
     </cc:Agent>
    </dc:creator>
   </cc:Work>
  </rdf:RDF>
 </metadata>
 <defs>
  <style type="text/css">*{stroke-linejoin: round; stroke-linecap: butt}</style>
 </defs>
 <g id="figure_1">
  <g id="patch_1">
   <path d="M 0 310.79952 
L 1088.39952 310.79952 
L 1088.39952 0 
L 0 0 
z
" style="fill: #ffffff"/>
  </g>
  <g id="axes_1">
   <g id="patch_2">
    <path d="M 39.890625 272.008895 
L 354.610257 272.008895 
L 354.610257 23.76 
L 39.890625 23.76 
z
" style="fill: #ffffff"/>
   </g>
   <g id="matplotlib.axis_1">
    <g id="xtick_1">
     <g id="line2d_1">
      <path d="M 54.196063 272.008895 
L 54.196063 23.76 
" clip-path="url(#p7888226612)" style="fill: none; stroke: #b0b0b0; stroke-opacity: 0.2; stroke-width: 0.8; stroke-linecap: square"/>
     </g>
     <g id="line2d_2">
      <defs>
       <path id="m8c092d7c2d" d="M 0 0 
L 0 3.5 
" style="stroke: #000000; stroke-width: 0.8"/>
      </defs>
      <g>
       <use xlink:href="#m8c092d7c2d" x="54.196063" y="272.008895" style="stroke: #000000; stroke-width: 0.8"/>
      </g>
     </g>
     <g id="text_1">
      <!-- 0.0 -->
      <g transform="translate(47.256219 287.808895) scale(0.1 -0.1)">
       <defs>
        <path id="NotoSansCJKjp-Regular-11" d="M 1779 -83 
C 2669 -83 3238 723 3238 2362 
C 3238 3987 2669 4774 1779 4774 
C 883 4774 320 3987 320 2362 
C 320 723 883 -83 1779 -83 
z
M 1779 390 
C 1248 390 883 986 883 2362 
C 883 3731 1248 4314 1779 4314 
C 2310 4314 2675 3731 2675 2362 
C 2675 986 2310 390 1779 390 
z
" transform="scale(0.015625)"/>
        <path id="NotoSansCJKjp-Regular-f" d="M 890 -83 
C 1120 -83 1312 96 1312 358 
C 1312 627 1120 806 890 806 
C 653 806 467 627 467 358 
C 467 96 653 -83 890 -83 
z
" transform="scale(0.015625)"/>
       </defs>
       <use xlink:href="#NotoSansCJKjp-Regular-11"/>
       <use xlink:href="#NotoSansCJKjp-Regular-f" transform="translate(55.5 0)"/>
       <use xlink:href="#NotoSansCJKjp-Regular-11" transform="translate(83.296875 0)"/>
      </g>
     </g>
    </g>
    <g id="xtick_2">
     <g id="line2d_3">
      <path d="M 89.959657 272.008895 
L 89.959657 23.76 
" clip-path="url(#p7888226612)" style="fill: none; stroke: #b0b0b0; stroke-opacity: 0.2; stroke-width: 0.8; stroke-linecap: square"/>
     </g>
     <g id="line2d_4">
      <g>
       <use xlink:href="#m8c092d7c2d" x="89.959657" y="272.008895" style="stroke: #000000; stroke-width: 0.8"/>
      </g>
     </g>
     <g id="text_2">
      <!-- 0.5 -->
      <g transform="translate(83.019814 287.808895) scale(0.1 -0.1)">
       <defs>
        <path id="NotoSansCJKjp-Regular-16" d="M 1677 -83 
C 2464 -83 3213 499 3213 1523 
C 3213 2560 2573 3021 1798 3021 
C 1517 3021 1306 2950 1094 2835 
L 1216 4192 
L 2982 4192 
L 2982 4691 
L 704 4691 
L 550 2502 
L 864 2304 
C 1133 2483 1331 2579 1645 2579 
C 2234 2579 2618 2182 2618 1510 
C 2618 826 2176 403 1619 403 
C 1075 403 730 653 467 922 
L 173 538 
C 493 224 941 -83 1677 -83 
z
" transform="scale(0.015625)"/>
       </defs>
       <use xlink:href="#NotoSansCJKjp-Regular-11"/>
       <use xlink:href="#NotoSansCJKjp-Regular-f" transform="translate(55.5 0)"/>
       <use xlink:href="#NotoSansCJKjp-Regular-16" transform="translate(83.296875 0)"/>
      </g>
     </g>
    </g>
    <g id="xtick_3">
     <g id="line2d_5">
      <path d="M 125.723252 272.008895 
L 125.723252 23.76 
" clip-path="url(#p7888226612)" style="fill: none; stroke: #b0b0b0; stroke-opacity: 0.2; stroke-width: 0.8; stroke-linecap: square"/>
     </g>
     <g id="line2d_6">
      <g>
       <use xlink:href="#m8c092d7c2d" x="125.723252" y="272.008895" style="stroke: #000000; stroke-width: 0.8"/>
      </g>
     </g>
     <g id="text_3">
      <!-- 1.0 -->
      <g transform="translate(118.783408 287.808895) scale(0.1 -0.1)">
       <defs>
        <path id="NotoSansCJKjp-Regular-12" d="M 563 0 
L 3136 0 
L 3136 486 
L 2195 486 
L 2195 4691 
L 1747 4691 
C 1491 4544 1190 4435 774 4358 
L 774 3987 
L 1613 3987 
L 1613 486 
L 563 486 
L 563 0 
z
" transform="scale(0.015625)"/>
       </defs>
       <use xlink:href="#NotoSansCJKjp-Regular-12"/>
       <use xlink:href="#NotoSansCJKjp-Regular-f" transform="translate(55.5 0)"/>
       <use xlink:href="#NotoSansCJKjp-Regular-11" transform="translate(83.296875 0)"/>
      </g>
     </g>
    </g>
    <g id="xtick_4">
     <g id="line2d_7">
      <path d="M 161.486846 272.008895 
L 161.486846 23.76 
" clip-path="url(#p7888226612)" style="fill: none; stroke: #b0b0b0; stroke-opacity: 0.2; stroke-width: 0.8; stroke-linecap: square"/>
     </g>
     <g id="line2d_8">
      <g>
       <use xlink:href="#m8c092d7c2d" x="161.486846" y="272.008895" style="stroke: #000000; stroke-width: 0.8"/>
      </g>
     </g>
     <g id="text_4">
      <!-- 1.5 -->
      <g transform="translate(154.547003 287.808895) scale(0.1 -0.1)">
       <use xlink:href="#NotoSansCJKjp-Regular-12"/>
       <use xlink:href="#NotoSansCJKjp-Regular-f" transform="translate(55.5 0)"/>
       <use xlink:href="#NotoSansCJKjp-Regular-16" transform="translate(83.296875 0)"/>
      </g>
     </g>
    </g>
    <g id="xtick_5">
     <g id="line2d_9">
      <path d="M 197.250441 272.008895 
L 197.250441 23.76 
" clip-path="url(#p7888226612)" style="fill: none; stroke: #b0b0b0; stroke-opacity: 0.2; stroke-width: 0.8; stroke-linecap: square"/>
     </g>
     <g id="line2d_10">
      <g>
       <use xlink:href="#m8c092d7c2d" x="197.250441" y="272.008895" style="stroke: #000000; stroke-width: 0.8"/>
      </g>
     </g>
     <g id="text_5">
      <!-- 2.0 -->
      <g transform="translate(190.310597 287.808895) scale(0.1 -0.1)">
       <defs>
        <path id="NotoSansCJKjp-Regular-13" d="M 282 0 
L 3232 0 
L 3232 506 
L 1933 506 
C 1696 506 1408 480 1165 461 
C 2266 1504 3008 2458 3008 3398 
C 3008 4230 2477 4774 1638 4774 
C 1043 4774 634 4506 256 4090 
L 595 3757 
C 858 4070 1184 4301 1568 4301 
C 2150 4301 2432 3910 2432 3373 
C 2432 2566 1754 1632 282 346 
L 282 0 
z
" transform="scale(0.015625)"/>
       </defs>
       <use xlink:href="#NotoSansCJKjp-Regular-13"/>
       <use xlink:href="#NotoSansCJKjp-Regular-f" transform="translate(55.5 0)"/>
       <use xlink:href="#NotoSansCJKjp-Regular-11" transform="translate(83.296875 0)"/>
      </g>
     </g>
    </g>
    <g id="xtick_6">
     <g id="line2d_11">
      <path d="M 233.014035 272.008895 
L 233.014035 23.76 
" clip-path="url(#p7888226612)" style="fill: none; stroke: #b0b0b0; stroke-opacity: 0.2; stroke-width: 0.8; stroke-linecap: square"/>
     </g>
     <g id="line2d_12">
      <g>
       <use xlink:href="#m8c092d7c2d" x="233.014035" y="272.008895" style="stroke: #000000; stroke-width: 0.8"/>
      </g>
     </g>
     <g id="text_6">
      <!-- 2.5 -->
      <g transform="translate(226.074192 287.808895) scale(0.1 -0.1)">
       <use xlink:href="#NotoSansCJKjp-Regular-13"/>
       <use xlink:href="#NotoSansCJKjp-Regular-f" transform="translate(55.5 0)"/>
       <use xlink:href="#NotoSansCJKjp-Regular-16" transform="translate(83.296875 0)"/>
      </g>
     </g>
    </g>
    <g id="xtick_7">
     <g id="line2d_13">
      <path d="M 268.77763 272.008895 
L 268.77763 23.76 
" clip-path="url(#p7888226612)" style="fill: none; stroke: #b0b0b0; stroke-opacity: 0.2; stroke-width: 0.8; stroke-linecap: square"/>
     </g>
     <g id="line2d_14">
      <g>
       <use xlink:href="#m8c092d7c2d" x="268.77763" y="272.008895" style="stroke: #000000; stroke-width: 0.8"/>
      </g>
     </g>
     <g id="text_7">
      <!-- 3.0 -->
      <g transform="translate(261.837786 287.808895) scale(0.1 -0.1)">
       <defs>
        <path id="NotoSansCJKjp-Regular-14" d="M 1683 -83 
C 2522 -83 3194 416 3194 1254 
C 3194 1901 2752 2310 2202 2445 
L 2202 2477 
C 2701 2650 3034 3034 3034 3603 
C 3034 4346 2458 4774 1664 4774 
C 1126 4774 710 4538 358 4218 
L 672 3846 
C 941 4115 1267 4301 1645 4301 
C 2138 4301 2438 4006 2438 3558 
C 2438 3053 2112 2662 1139 2662 
L 1139 2214 
C 2227 2214 2598 1843 2598 1274 
C 2598 736 2208 403 1645 403 
C 1114 403 762 659 486 941 
L 186 563 
C 493 224 954 -83 1683 -83 
z
" transform="scale(0.015625)"/>
       </defs>
       <use xlink:href="#NotoSansCJKjp-Regular-14"/>
       <use xlink:href="#NotoSansCJKjp-Regular-f" transform="translate(55.5 0)"/>
       <use xlink:href="#NotoSansCJKjp-Regular-11" transform="translate(83.296875 0)"/>
      </g>
     </g>
    </g>
    <g id="xtick_8">
     <g id="line2d_15">
      <path d="M 304.541224 272.008895 
L 304.541224 23.76 
" clip-path="url(#p7888226612)" style="fill: none; stroke: #b0b0b0; stroke-opacity: 0.2; stroke-width: 0.8; stroke-linecap: square"/>
     </g>
     <g id="line2d_16">
      <g>
       <use xlink:href="#m8c092d7c2d" x="304.541224" y="272.008895" style="stroke: #000000; stroke-width: 0.8"/>
      </g>
     </g>
     <g id="text_8">
      <!-- 3.5 -->
      <g transform="translate(297.601381 287.808895) scale(0.1 -0.1)">
       <use xlink:href="#NotoSansCJKjp-Regular-14"/>
       <use xlink:href="#NotoSansCJKjp-Regular-f" transform="translate(55.5 0)"/>
       <use xlink:href="#NotoSansCJKjp-Regular-16" transform="translate(83.296875 0)"/>
      </g>
     </g>
    </g>
    <g id="xtick_9">
     <g id="line2d_17">
      <path d="M 340.304819 272.008895 
L 340.304819 23.76 
" clip-path="url(#p7888226612)" style="fill: none; stroke: #b0b0b0; stroke-opacity: 0.2; stroke-width: 0.8; stroke-linecap: square"/>
     </g>
     <g id="line2d_18">
      <g>
       <use xlink:href="#m8c092d7c2d" x="340.304819" y="272.008895" style="stroke: #000000; stroke-width: 0.8"/>
      </g>
     </g>
     <g id="text_9">
      <!-- 4.0 -->
      <g transform="translate(333.364975 287.808895) scale(0.1 -0.1)">
       <defs>
        <path id="NotoSansCJKjp-Regular-15" d="M 2176 0 
L 2726 0 
L 2726 1293 
L 3354 1293 
L 3354 1760 
L 2726 1760 
L 2726 4691 
L 2080 4691 
L 128 1677 
L 128 1293 
L 2176 1293 
L 2176 0 
z
M 2176 1760 
L 736 1760 
L 1805 3360 
C 1939 3590 2067 3827 2182 4051 
L 2208 4051 
C 2195 3814 2176 3430 2176 3200 
L 2176 1760 
z
" transform="scale(0.015625)"/>
       </defs>
       <use xlink:href="#NotoSansCJKjp-Regular-15"/>
       <use xlink:href="#NotoSansCJKjp-Regular-f" transform="translate(55.5 0)"/>
       <use xlink:href="#NotoSansCJKjp-Regular-11" transform="translate(83.296875 0)"/>
      </g>
     </g>
    </g>
    <g id="text_10">
     <!-- 时间 / h -->
     <g transform="translate(180.014503 301.808895) scale(0.1 -0.1)">
      <defs>
       <path id="NotoSansCJKjp-Regular-4f11" d="M 3034 2893 
C 3373 2400 3808 1722 4013 1331 
L 4435 1574 
C 4218 1965 3776 2618 3430 3104 
L 3034 2893 
z
M 2074 2573 
L 2074 1114 
L 979 1114 
L 979 2573 
L 2074 2573 
z
M 2074 3002 
L 979 3002 
L 979 4403 
L 2074 4403 
L 2074 3002 
z
M 518 4838 
L 518 160 
L 979 160 
L 979 678 
L 2522 678 
L 2522 4838 
L 518 4838 
z
M 4890 5344 
L 4890 4096 
L 2816 4096 
L 2816 3622 
L 4890 3622 
L 4890 211 
C 4890 83 4838 38 4710 38 
C 4570 26 4096 26 3597 45 
C 3667 -96 3744 -314 3776 -448 
C 4416 -448 4826 -442 5056 -358 
C 5286 -282 5376 -141 5376 211 
L 5376 3622 
L 6157 3622 
L 6157 4096 
L 5376 4096 
L 5376 5344 
L 4890 5344 
z
" transform="scale(0.015625)"/>
       <path id="NotoSansCJKjp-Regular-a811" d="M 582 3936 
L 582 -512 
L 1075 -512 
L 1075 3936 
L 582 3936 
z
M 678 5062 
C 973 4781 1306 4378 1453 4122 
L 1850 4378 
C 1696 4646 1350 5024 1050 5293 
L 678 5062 
z
M 2426 1888 
L 3962 1888 
L 3962 1024 
L 2426 1024 
L 2426 1888 
z
M 2426 3142 
L 3962 3142 
L 3962 2291 
L 2426 2291 
L 2426 3142 
z
M 1990 3546 
L 1990 627 
L 4416 627 
L 4416 3546 
L 1990 3546 
z
M 2253 5018 
L 2253 4563 
L 5350 4563 
L 5350 70 
C 5350 -13 5325 -38 5242 -45 
C 5158 -45 4896 -51 4627 -38 
C 4691 -160 4755 -365 4781 -480 
C 5171 -480 5446 -480 5619 -403 
C 5786 -320 5843 -198 5843 70 
L 5843 5018 
L 2253 5018 
z
" transform="scale(0.015625)"/>
       <path id="NotoSansCJKjp-Regular-1" transform="scale(0.015625)"/>
       <path id="NotoSansCJKjp-Regular-10" d="M 70 -1146 
L 499 -1146 
L 2413 5082 
L 1990 5082 
L 70 -1146 
z
" transform="scale(0.015625)"/>
       <path id="NotoSansCJKjp-Regular-49" d="M 589 0 
L 1178 0 
L 1178 2522 
C 1523 2874 1766 3053 2125 3053 
C 2586 3053 2784 2778 2784 2125 
L 2784 0 
L 3366 0 
L 3366 2202 
C 3366 3085 3034 3565 2304 3565 
C 1830 3565 1472 3302 1152 2982 
L 1178 3699 
L 1178 5094 
L 589 5094 
L 589 0 
z
" transform="scale(0.015625)"/>
      </defs>
      <use xlink:href="#NotoSansCJKjp-Regular-4f11"/>
      <use xlink:href="#NotoSansCJKjp-Regular-a811" transform="translate(100 0)"/>
      <use xlink:href="#NotoSansCJKjp-Regular-1" transform="translate(200 0)"/>
      <use xlink:href="#NotoSansCJKjp-Regular-10" transform="translate(222.40625 0)"/>
      <use xlink:href="#NotoSansCJKjp-Regular-1" transform="translate(261.609375 0)"/>
      <use xlink:href="#NotoSansCJKjp-Regular-49" transform="translate(284.015625 0)"/>
     </g>
    </g>
   </g>
   <g id="matplotlib.axis_2">
    <g id="ytick_1">
     <g id="line2d_19">
      <path d="M 39.890625 240.435291 
L 354.610257 240.435291 
" clip-path="url(#p7888226612)" style="fill: none; stroke: #b0b0b0; stroke-opacity: 0.2; stroke-width: 0.8; stroke-linecap: square"/>
     </g>
     <g id="line2d_20">
      <defs>
       <path id="mb834122ba8" d="M 0 0 
L -3.5 0 
" style="stroke: #000000; stroke-width: 0.8"/>
      </defs>
      <g>
       <use xlink:href="#mb834122ba8" x="39.890625" y="240.435291" style="stroke: #000000; stroke-width: 0.8"/>
      </g>
     </g>
     <g id="text_11">
      <!-- 30 -->
      <g transform="translate(21.790625 244.835291) scale(0.1 -0.1)">
       <use xlink:href="#NotoSansCJKjp-Regular-14"/>
       <use xlink:href="#NotoSansCJKjp-Regular-11" transform="translate(55.5 0)"/>
      </g>
     </g>
    </g>
    <g id="ytick_2">
     <g id="line2d_21">
      <path d="M 39.890625 189.711382 
L 354.610257 189.711382 
" clip-path="url(#p7888226612)" style="fill: none; stroke: #b0b0b0; stroke-opacity: 0.2; stroke-width: 0.8; stroke-linecap: square"/>
     </g>
     <g id="line2d_22">
      <g>
       <use xlink:href="#mb834122ba8" x="39.890625" y="189.711382" style="stroke: #000000; stroke-width: 0.8"/>
      </g>
     </g>
     <g id="text_12">
      <!-- 35 -->
      <g transform="translate(21.790625 194.111382) scale(0.1 -0.1)">
       <use xlink:href="#NotoSansCJKjp-Regular-14"/>
       <use xlink:href="#NotoSansCJKjp-Regular-16" transform="translate(55.5 0)"/>
      </g>
     </g>
    </g>
    <g id="ytick_3">
     <g id="line2d_23">
      <path d="M 39.890625 138.987474 
L 354.610257 138.987474 
" clip-path="url(#p7888226612)" style="fill: none; stroke: #b0b0b0; stroke-opacity: 0.2; stroke-width: 0.8; stroke-linecap: square"/>
     </g>
     <g id="line2d_24">
      <g>
       <use xlink:href="#mb834122ba8" x="39.890625" y="138.987474" style="stroke: #000000; stroke-width: 0.8"/>
      </g>
     </g>
     <g id="text_13">
      <!-- 40 -->
      <g transform="translate(21.790625 143.387474) scale(0.1 -0.1)">
       <use xlink:href="#NotoSansCJKjp-Regular-15"/>
       <use xlink:href="#NotoSansCJKjp-Regular-11" transform="translate(55.5 0)"/>
      </g>
     </g>
    </g>
    <g id="ytick_4">
     <g id="line2d_25">
      <path d="M 39.890625 88.263565 
L 354.610257 88.263565 
" clip-path="url(#p7888226612)" style="fill: none; stroke: #b0b0b0; stroke-opacity: 0.2; stroke-width: 0.8; stroke-linecap: square"/>
     </g>
     <g id="line2d_26">
      <g>
       <use xlink:href="#mb834122ba8" x="39.890625" y="88.263565" style="stroke: #000000; stroke-width: 0.8"/>
      </g>
     </g>
     <g id="text_14">
      <!-- 45 -->
      <g transform="translate(21.790625 92.663565) scale(0.1 -0.1)">
       <use xlink:href="#NotoSansCJKjp-Regular-15"/>
       <use xlink:href="#NotoSansCJKjp-Regular-16" transform="translate(55.5 0)"/>
      </g>
     </g>
    </g>
    <g id="ytick_5">
     <g id="line2d_27">
      <path d="M 39.890625 37.539657 
L 354.610257 37.539657 
" clip-path="url(#p7888226612)" style="fill: none; stroke: #b0b0b0; stroke-opacity: 0.2; stroke-width: 0.8; stroke-linecap: square"/>
     </g>
     <g id="line2d_28">
      <g>
       <use xlink:href="#mb834122ba8" x="39.890625" y="37.539657" style="stroke: #000000; stroke-width: 0.8"/>
      </g>
     </g>
     <g id="text_15">
      <!-- 50 -->
      <g transform="translate(21.790625 41.939657) scale(0.1 -0.1)">
       <use xlink:href="#NotoSansCJKjp-Regular-16"/>
       <use xlink:href="#NotoSansCJKjp-Regular-11" transform="translate(55.5 0)"/>
      </g>
     </g>
    </g>
    <g id="text_16">
     <!-- 烘房温度 / ℃ -->
     <g transform="translate(16 177.085229) rotate(-90) scale(0.1 -0.1)">
      <defs>
       <path id="NotoSansCJKjp-Regular-61d3" d="M 544 4064 
C 512 3565 422 2899 262 2502 
L 608 2362 
C 774 2816 864 3514 883 4019 
L 544 4064 
z
M 2144 4256 
C 2048 3859 1843 3277 1690 2925 
L 1958 2797 
C 2131 3136 2336 3680 2515 4109 
L 2144 4256 
z
M 3424 1114 
C 3162 608 2714 122 2266 -198 
C 2381 -269 2573 -422 2656 -506 
C 3110 -154 3590 410 3885 979 
L 3424 1114 
z
M 4570 902 
C 4986 480 5440 -122 5651 -506 
L 6067 -243 
C 5850 141 5389 710 4966 1126 
L 4570 902 
z
M 1235 5344 
L 1235 3155 
C 1235 1978 1139 755 250 -192 
C 352 -262 506 -416 576 -518 
C 1082 6 1357 614 1504 1254 
C 1747 941 2054 531 2189 307 
L 2509 653 
C 2374 826 1811 1510 1594 1747 
C 1658 2208 1670 2682 1670 3155 
L 1670 5344 
L 1235 5344 
z
M 4755 5306 
L 4755 4006 
L 3712 4006 
L 3712 5306 
L 3245 5306 
L 3245 4006 
L 2522 4006 
L 2522 3546 
L 3245 3546 
L 3245 1965 
L 2355 1965 
L 2355 1498 
L 6125 1498 
L 6125 1965 
L 5222 1965 
L 5222 3546 
L 6022 3546 
L 6022 4006 
L 5222 4006 
L 5222 5306 
L 4755 5306 
z
M 3712 3546 
L 4755 3546 
L 4755 1965 
L 3712 1965 
L 3712 3546 
z
" transform="scale(0.015625)"/>
       <path id="NotoSansCJKjp-Regular-48a2" d="M 518 5030 
L 518 4595 
L 5894 4595 
L 5894 5030 
L 518 5030 
z
M 1453 3789 
L 5050 3789 
L 5050 3155 
L 1453 3155 
L 1453 3789 
z
M 1453 2784 
L 3194 2784 
L 3194 2221 
L 1440 2221 
C 1446 2400 1453 2566 1453 2726 
L 1453 2784 
z
M 979 4160 
L 979 2733 
C 979 1869 896 704 186 -128 
C 307 -173 512 -314 595 -397 
C 1114 224 1331 1062 1408 1830 
L 2778 1830 
C 2656 877 2336 192 1062 -160 
C 1158 -243 1286 -416 1331 -525 
C 2330 -230 2810 262 3059 934 
L 4928 934 
C 4864 275 4787 -6 4691 -96 
C 4634 -147 4570 -154 4454 -154 
C 4333 -154 4000 -147 3654 -115 
C 3725 -230 3776 -403 3782 -525 
C 4141 -544 4486 -550 4653 -538 
C 4838 -525 4966 -493 5082 -384 
C 5242 -218 5338 179 5421 1126 
C 5427 1184 5434 1318 5434 1318 
L 3168 1318 
C 3206 1478 3238 1651 3258 1830 
L 6061 1830 
L 6061 2221 
L 3667 2221 
L 3667 2784 
L 5523 2784 
L 5523 4160 
L 979 4160 
z
" transform="scale(0.015625)"/>
       <path id="NotoSansCJKjp-Regular-5cea" d="M 2848 3680 
L 5037 3680 
L 5037 3053 
L 2848 3053 
L 2848 3680 
z
M 2848 4685 
L 5037 4685 
L 5037 4064 
L 2848 4064 
L 2848 4685 
z
M 2400 5094 
L 2400 2643 
L 5504 2643 
L 5504 5094 
L 2400 5094 
z
M 627 4954 
C 1030 4774 1542 4480 1792 4262 
L 2061 4653 
C 1805 4864 1286 5139 883 5299 
L 627 4954 
z
M 243 3213 
C 659 3027 1171 2726 1427 2515 
L 1690 2906 
C 1427 3117 909 3398 499 3558 
L 243 3213 
z
M 410 -102 
L 819 -403 
C 1178 192 1600 998 1920 1670 
L 1562 1958 
C 1216 1235 736 390 410 -102 
z
M 1638 102 
L 1638 -326 
L 6157 -326 
L 6157 102 
L 5722 102 
L 5722 2099 
L 2182 2099 
L 2182 102 
L 1638 102 
z
M 2624 102 
L 2624 1677 
L 3245 1677 
L 3245 102 
L 2624 102 
z
M 3622 102 
L 3622 1677 
L 4250 1677 
L 4250 102 
L 3622 102 
z
M 4634 102 
L 4634 1677 
L 5267 1677 
L 5267 102 
L 4634 102 
z
" transform="scale(0.015625)"/>
       <path id="NotoSansCJKjp-Regular-4231" d="M 2470 4141 
L 2470 3584 
L 1440 3584 
L 1440 3187 
L 2470 3187 
L 2470 2125 
L 4960 2125 
L 4960 3187 
L 5997 3187 
L 5997 3584 
L 4960 3584 
L 4960 4141 
L 4486 4141 
L 4486 3584 
L 2931 3584 
L 2931 4141 
L 2470 4141 
z
M 4486 3187 
L 4486 2509 
L 2931 2509 
L 2931 3187 
L 4486 3187 
z
M 4851 1318 
C 4582 986 4211 717 3770 506 
C 3334 723 2970 992 2720 1318 
L 4851 1318 
z
M 1530 1715 
L 1530 1318 
L 2502 1318 
L 2259 1222 
C 2515 858 2861 550 3270 301 
C 2662 90 1978 -38 1280 -109 
C 1357 -211 1453 -397 1485 -512 
C 2291 -416 3072 -243 3757 45 
C 4365 -237 5088 -422 5869 -525 
C 5933 -403 6048 -211 6150 -109 
C 5466 -38 4819 96 4269 294 
C 4813 608 5261 1024 5549 1574 
L 5248 1734 
L 5165 1715 
L 1530 1715 
z
M 774 4742 
L 774 2893 
C 774 1965 730 659 198 -256 
C 314 -307 512 -435 595 -518 
C 1152 448 1235 1901 1235 2893 
L 1235 4307 
L 6035 4307 
L 6035 4742 
L 3635 4742 
L 3635 5376 
L 3142 5376 
L 3142 4742 
L 774 4742 
z
" transform="scale(0.015625)"/>
       <path id="NotoSansCJKjp-Regular-2f3" d="M 1203 3053 
C 1683 3053 2099 3418 2099 3968 
C 2099 4531 1683 4883 1203 4883 
C 717 4883 301 4531 301 3968 
C 301 3418 717 3053 1203 3053 
z
M 1203 3386 
C 883 3386 666 3629 666 3968 
C 666 4314 883 4550 1203 4550 
C 1517 4550 1741 4314 1741 3968 
C 1741 3629 1517 3386 1203 3386 
z
M 4704 -83 
C 5299 -83 5760 154 6131 589 
L 5779 966 
C 5485 634 5165 454 4717 454 
C 3834 454 3277 1184 3277 2349 
C 3277 3507 3859 4230 4742 4230 
C 5133 4230 5427 4070 5677 3808 
L 6022 4192 
C 5747 4486 5293 4768 4736 4768 
C 3533 4768 2643 3853 2643 2336 
C 2643 813 3520 -83 4704 -83 
z
" transform="scale(0.015625)"/>
      </defs>
      <use xlink:href="#NotoSansCJKjp-Regular-61d3"/>
      <use xlink:href="#NotoSansCJKjp-Regular-48a2" transform="translate(100 0)"/>
      <use xlink:href="#NotoSansCJKjp-Regular-5cea" transform="translate(200 0)"/>
      <use xlink:href="#NotoSansCJKjp-Regular-4231" transform="translate(300 0)"/>
      <use xlink:href="#NotoSansCJKjp-Regular-1" transform="translate(400 0)"/>
      <use xlink:href="#NotoSansCJKjp-Regular-10" transform="translate(422.40625 0)"/>
      <use xlink:href="#NotoSansCJKjp-Regular-1" transform="translate(461.609375 0)"/>
      <use xlink:href="#NotoSansCJKjp-Regular-2f3" transform="translate(484.015625 0)"/>
     </g>
    </g>
   </g>
   <g id="line2d_29">
    <path d="M 54.196063 260.724854 
L 55.388183 255.36841 
L 56.580302 248.632275 
L 57.772422 243.641042 
L 58.964542 240.059934 
L 60.156662 231.974543 
L 61.348782 227.318088 
L 62.540902 221.971788 
L 63.733021 218.918209 
L 64.925141 212.740037 
L 66.117261 207.9517 
L 67.309381 201.083683 
L 68.501501 197.137363 
L 69.69362 191.67947 
L 70.88574 188.270823 
L 72.07786 184.395517 
L 73.26998 178.643426 
L 74.4621 175.975348 
L 75.65422 168.742119 
L 76.846339 165.171156 
L 78.038459 160.474122 
L 79.230579 157.917637 
L 80.422699 151.49599 
L 82.806938 144.485946 
L 83.999058 143.096111 
L 85.191178 138.368642 
L 86.383298 136.573016 
L 87.575418 132.687565 
L 88.767537 127.158658 
L 89.959657 123.638419 
L 91.151777 119.529783 
L 92.343897 119.18486 
L 94.728137 112.722634 
L 95.920256 111.140048 
L 97.112376 108.705301 
L 98.304496 104.56623 
L 99.496616 103.135815 
L 100.688736 98.712691 
L 101.880855 97.373579 
L 103.072975 93.305522 
L 104.265095 91.682357 
L 105.457215 91.296855 
L 106.649335 86.863586 
L 107.841455 84.986801 
L 109.033574 84.976656 
L 110.225694 83.576676 
L 111.417814 79.965134 
L 112.609934 80.766572 
L 113.802054 78.828918 
L 114.994173 78.128929 
L 116.186293 72.924656 
L 117.378413 72.011625 
L 119.762653 68.653702 
L 120.954773 68.866743 
L 122.146892 67.071116 
L 123.339012 67.892844 
L 124.531132 66.847931 
L 125.723252 63.053783 
L 126.915372 62.921901 
L 128.107491 61.420473 
L 129.299611 59.452385 
L 130.491731 59.117608 
L 131.683851 58.579934 
L 132.875971 57.666904 
L 134.068091 58.06255 
L 135.26021 58.579934 
L 136.45233 55.810409 
L 137.64445 56.145187 
L 138.83657 54.471298 
L 140.02869 51.59018 
L 141.220809 53.974203 
L 142.412929 54.207533 
L 143.605049 52.493065 
L 144.797169 51.843799 
L 145.989289 49.459775 
L 147.181409 49.439486 
L 148.373528 47.806176 
L 149.565648 47.897479 
L 150.757768 48.698917 
L 151.949888 46.22359 
L 153.142008 49.00326 
L 154.334127 49.307604 
L 155.526247 48.567035 
L 156.718367 45.036651 
L 157.910487 45.969971 
L 159.102607 47.116331 
L 160.294727 45.07723 
L 161.486846 46.507644 
L 162.678966 43.474354 
L 163.871086 44.427964 
L 166.255326 44.600425 
L 167.447445 42.693206 
L 169.831685 44.925058 
L 171.023805 44.539556 
L 172.215925 40.085997 
L 173.408044 40.146866 
L 174.600164 40.988883 
L 175.792284 42.987405 
L 176.984404 39.26427 
L 178.176524 40.045418 
L 179.368644 40.187445 
L 180.560763 41.374384 
L 182.945003 42.845378 
L 184.137123 38.645438 
L 185.329243 40.755553 
L 186.521362 41.912058 
L 187.713482 41.262792 
L 188.905602 39.761364 
L 190.097722 41.678728 
L 191.289842 38.138199 
L 192.481962 38.533846 
L 193.674081 38.635293 
L 194.866201 39.984549 
L 196.058321 38.909203 
L 197.250441 39.041085 
L 198.442561 38.625149 
L 199.63468 41.404819 
L 200.8268 39.649772 
L 202.01892 41.475832 
L 203.21104 39.112098 
L 205.59528 40.755553 
L 206.787399 40.89758 
L 207.979519 38.391819 
L 209.171639 40.441065 
L 210.363759 36.575903 
L 211.555879 38.259936 
L 212.747998 39.396152 
L 213.940118 38.11791 
L 215.132238 40.948304 
L 216.324358 36.170111 
L 217.516478 38.533846 
L 218.708598 36.971549 
L 219.900717 40.481644 
L 221.092837 38.401963 
L 222.284957 38.35124 
L 223.477077 36.048374 
L 224.669197 37.874435 
L 225.861316 38.341095 
L 227.053436 39.355573 
L 228.245556 39.000506 
L 229.437676 38.016462 
L 230.629796 38.401963 
L 231.821916 40.501933 
L 233.014035 35.886058 
L 234.206155 35.53099 
L 235.398275 39.365718 
L 236.590395 37.265748 
L 237.782515 39.528034 
L 238.974634 36.667206 
L 240.166754 38.645438 
L 241.358874 36.728074 
L 242.550994 36.393297 
L 243.743114 36.180256 
L 244.935234 39.528034 
L 246.127353 35.429542 
L 247.319473 38.909203 
L 248.511593 39.883102 
L 249.703713 37.265748 
L 250.895833 38.199068 
L 252.087952 35.865768 
L 253.280072 35.977361 
L 254.472192 38.462832 
L 255.664312 35.246936 
L 256.856432 38.604859 
L 258.048551 37.458499 
L 259.240671 38.77732 
L 260.432791 35.328095 
L 261.624911 39.24398 
L 262.817031 39.852667 
L 264.009151 37.86429 
L 265.20127 35.044041 
L 266.39339 35.55128 
L 267.58551 36.281704 
L 268.77763 35.561425 
L 269.96975 35.541135 
L 271.161869 37.448354 
L 272.353989 38.472977 
L 273.546109 36.159967 
L 274.738229 36.71793 
L 277.122469 39.599048 
L 278.314588 36.291849 
L 279.506708 38.746886 
L 280.698828 35.328095 
L 281.890948 38.858479 
L 283.083068 39.457021 
L 284.275187 35.855623 
L 285.467307 39.294704 
L 286.659427 39.162822 
L 287.851547 37.032418 
L 289.043667 35.642583 
L 290.235787 39.081664 
L 291.427906 38.503411 
L 292.620026 36.129532 
L 293.812146 35.145488 
L 295.004266 37.539657 
L 296.196386 39.345428 
L 297.388505 40.004839 
L 298.580625 38.909203 
L 299.772745 39.406297 
L 300.964865 36.636771 
L 302.156985 39.457021 
L 303.349105 37.509223 
L 304.541224 36.555613 
L 305.733344 37.123721 
L 306.925464 39.061374 
L 308.117584 35.99765 
L 309.309704 36.444021 
L 310.501823 36.332428 
L 311.693943 39.406297 
L 312.886063 39.446876 
L 314.078183 35.368674 
L 315.270303 38.057041 
L 316.462423 38.554135 
L 318.846662 36.71793 
L 320.038782 35.226647 
L 321.230902 38.625149 
L 322.423022 35.388963 
L 323.615141 39.954115 
L 324.807261 37.255603 
L 325.999381 36.859957 
L 327.191501 39.538179 
L 328.383621 39.365718 
L 329.575741 37.945448 
L 330.76786 35.175923 
L 331.95998 37.052707 
L 333.1521 35.338239 
L 334.34422 35.99765 
L 335.53634 37.701973 
L 336.728459 36.099098 
L 337.920579 39.984549 
L 339.112699 39.517889 
L 340.304819 35.865768 
L 340.304819 35.865768 
" clip-path="url(#p7888226612)" style="fill: none; stroke: #2864a0; stroke-width: 1.5; stroke-linecap: square"/>
   </g>
   <g id="patch_3">
    <path d="M 39.890625 272.008895 
L 39.890625 23.76 
" style="fill: none; stroke: #000000; stroke-width: 0.8; stroke-linejoin: miter; stroke-linecap: square"/>
   </g>
   <g id="patch_4">
    <path d="M 39.890625 272.008895 
L 354.610257 272.008895 
" style="fill: none; stroke: #000000; stroke-width: 0.8; stroke-linejoin: miter; stroke-linecap: square"/>
   </g>
   <g id="text_17">
    <!-- A：烘房边界温度（附件1） -->
    <g transform="translate(124.272628 17.76) scale(0.12 -0.12)">
     <defs>
      <path id="NotoSansCJKjp-Regular-22" d="M 26 0 
L 621 0 
L 1075 1434 
L 2790 1434 
L 3238 0 
L 3866 0 
L 2272 4691 
L 1613 4691 
L 26 0 
z
M 1222 1901 
L 1453 2624 
C 1619 3155 1773 3661 1920 4211 
L 1946 4211 
C 2099 3667 2246 3155 2419 2624 
L 2643 1901 
L 1222 1901 
z
" transform="scale(0.015625)"/>
      <path id="NotoSansCJKjp-Regular-e6c0" d="M 3200 3482 
C 3456 3482 3686 3667 3686 3962 
C 3686 4256 3456 4442 3200 4442 
C 2944 4442 2714 4256 2714 3962 
C 2714 3667 2944 3482 3200 3482 
z
M 3200 346 
C 3456 346 3686 538 3686 826 
C 3686 1120 3456 1312 3200 1312 
C 2944 1312 2714 1120 2714 826 
C 2714 538 2944 346 3200 346 
z
" transform="scale(0.015625)"/>
      <path id="NotoSansCJKjp-Regular-9c66" d="M 525 5018 
C 877 4685 1306 4218 1510 3917 
L 1901 4224 
C 1690 4512 1248 4960 896 5280 
L 525 5018 
z
M 3539 5280 
C 3533 4922 3526 4570 3507 4230 
L 2189 4230 
L 2189 3770 
L 3475 3770 
C 3366 2541 3046 1517 2003 896 
C 2131 813 2278 659 2349 544 
C 3482 1261 3840 2400 3974 3770 
L 5395 3770 
C 5312 1971 5222 1267 5062 1094 
C 4998 1024 4928 1011 4806 1018 
C 4659 1018 4301 1018 3923 1050 
C 4013 909 4077 704 4090 557 
C 4442 544 4806 531 4998 550 
C 5216 570 5357 621 5491 787 
C 5709 1050 5798 1824 5888 4000 
C 5894 4064 5894 4230 5894 4230 
L 4006 4230 
C 4026 4570 4038 4922 4045 5280 
L 3539 5280 
z
M 1587 3206 
L 269 3206 
L 269 2733 
L 1107 2733 
L 1107 742 
C 826 627 499 326 154 -58 
L 512 -525 
C 826 -77 1126 333 1331 333 
C 1472 333 1690 102 1958 -77 
C 2419 -371 2963 -442 3795 -442 
C 4442 -442 5626 -403 6080 -371 
C 6093 -224 6170 32 6234 166 
C 5587 96 4608 38 3814 38 
C 3066 38 2502 83 2080 358 
C 1856 499 1709 627 1587 704 
L 1587 3206 
z
" transform="scale(0.015625)"/>
      <path id="NotoSansCJKjp-Regular-69e1" d="M 1990 1734 
L 1990 1357 
C 1990 877 1882 256 755 -166 
C 858 -256 1018 -429 1082 -550 
C 2330 -51 2483 730 2483 1344 
L 2483 1734 
L 1990 1734 
z
M 1478 3699 
L 2950 3699 
L 2950 3002 
L 1478 3002 
L 1478 3699 
z
M 3430 3699 
L 4915 3699 
L 4915 3002 
L 3430 3002 
L 3430 3699 
z
M 1478 4762 
L 2950 4762 
L 2950 4077 
L 1478 4077 
L 1478 4762 
z
M 3430 4762 
L 4915 4762 
L 4915 4077 
L 3430 4077 
L 3430 4762 
z
M 4026 1734 
L 4026 -499 
L 4518 -499 
L 4518 1722 
C 4922 1446 5376 1222 5830 1082 
C 5901 1203 6048 1389 6157 1491 
C 5395 1690 4627 2099 4134 2598 
L 5408 2598 
L 5408 5171 
L 1005 5171 
L 1005 2598 
L 2285 2598 
C 1792 2093 1024 1664 288 1453 
C 397 1350 538 1178 608 1050 
C 1453 1350 2342 1926 2874 2598 
L 3578 2598 
C 3821 2278 4141 1984 4499 1734 
L 4026 1734 
z
" transform="scale(0.015625)"/>
      <path id="NotoSansCJKjp-Regular-e6ae" d="M 4448 2432 
C 4448 1184 4954 166 5722 -614 
L 6106 -416 
C 5370 346 4915 1293 4915 2432 
C 4915 3571 5370 4518 6106 5280 
L 5722 5478 
C 4954 4698 4448 3680 4448 2432 
z
" transform="scale(0.015625)"/>
      <path id="NotoSansCJKjp-Regular-a86d" d="M 3674 2650 
C 3910 2189 4198 1568 4326 1178 
L 4723 1370 
C 4589 1760 4301 2355 4045 2816 
L 3674 2650 
z
M 5133 5299 
L 5133 3904 
L 3539 3904 
L 3539 3456 
L 5133 3456 
L 5133 102 
C 5133 0 5094 -26 4998 -32 
C 4902 -38 4602 -38 4256 -26 
C 4326 -160 4390 -378 4416 -499 
C 4890 -506 5171 -486 5350 -410 
C 5523 -326 5594 -179 5594 109 
L 5594 3456 
L 6163 3456 
L 6163 3904 
L 5594 3904 
L 5594 5299 
L 5133 5299 
z
M 3302 5370 
C 3034 4435 2566 3520 2029 2925 
C 2125 2829 2278 2624 2336 2528 
C 2496 2714 2650 2925 2797 3162 
L 2797 -480 
L 3232 -480 
L 3232 3949 
C 3430 4365 3603 4806 3744 5254 
L 3302 5370 
z
M 531 5101 
L 531 -512 
L 960 -512 
L 960 4666 
L 1747 4666 
C 1619 4218 1446 3629 1280 3155 
C 1702 2630 1798 2170 1798 1818 
C 1798 1606 1766 1421 1677 1350 
C 1632 1312 1562 1293 1491 1293 
C 1402 1286 1286 1286 1152 1299 
C 1229 1178 1261 998 1261 870 
C 1402 864 1549 864 1670 883 
C 1792 896 1901 934 1984 1005 
C 2157 1126 2227 1408 2227 1766 
C 2227 2176 2131 2656 1702 3206 
C 1901 3738 2125 4397 2291 4941 
L 1984 5126 
L 1907 5101 
L 531 5101 
z
" transform="scale(0.015625)"/>
      <path id="NotoSansCJKjp-Regular-266d" d="M 2029 2182 
L 2029 1715 
L 3866 1715 
L 3866 -512 
L 4346 -512 
L 4346 1715 
L 6099 1715 
L 6099 2182 
L 4346 2182 
L 4346 3597 
L 5818 3597 
L 5818 4064 
L 4346 4064 
L 4346 5299 
L 3866 5299 
L 3866 4064 
L 3008 4064 
C 3091 4352 3162 4659 3226 4960 
L 2765 5056 
C 2618 4218 2349 3392 1978 2861 
C 2093 2803 2298 2688 2387 2618 
C 2560 2886 2720 3226 2854 3597 
L 3866 3597 
L 3866 2182 
L 2029 2182 
z
M 1715 5350 
C 1370 4384 806 3424 205 2797 
C 288 2688 429 2438 480 2323 
C 685 2541 877 2797 1069 3072 
L 1069 -499 
L 1530 -499 
L 1530 3821 
C 1773 4269 1990 4742 2170 5216 
L 1715 5350 
z
" transform="scale(0.015625)"/>
      <path id="NotoSansCJKjp-Regular-e6af" d="M 1952 2432 
C 1952 3680 1446 4698 678 5478 
L 294 5280 
C 1030 4518 1485 3571 1485 2432 
C 1485 1293 1030 346 294 -416 
L 678 -614 
C 1446 166 1952 1184 1952 2432 
z
" transform="scale(0.015625)"/>
     </defs>
     <use xlink:href="#NotoSansCJKjp-Regular-22"/>
     <use xlink:href="#NotoSansCJKjp-Regular-e6c0" transform="translate(60.796875 0)"/>
     <use xlink:href="#NotoSansCJKjp-Regular-61d3" transform="translate(160.796875 0)"/>
     <use xlink:href="#NotoSansCJKjp-Regular-48a2" transform="translate(260.796875 0)"/>
     <use xlink:href="#NotoSansCJKjp-Regular-9c66" transform="translate(360.796875 0)"/>
     <use xlink:href="#NotoSansCJKjp-Regular-69e1" transform="translate(460.796875 0)"/>
     <use xlink:href="#NotoSansCJKjp-Regular-5cea" transform="translate(560.796875 0)"/>
     <use xlink:href="#NotoSansCJKjp-Regular-4231" transform="translate(660.796875 0)"/>
     <use xlink:href="#NotoSansCJKjp-Regular-e6ae" transform="translate(760.796875 0)"/>
     <use xlink:href="#NotoSansCJKjp-Regular-a86d" transform="translate(860.796875 0)"/>
     <use xlink:href="#NotoSansCJKjp-Regular-266d" transform="translate(960.796875 0)"/>
     <use xlink:href="#NotoSansCJKjp-Regular-12" transform="translate(1060.796875 0)"/>
     <use xlink:href="#NotoSansCJKjp-Regular-e6af" transform="translate(1116.296875 0)"/>
    </g>
   </g>
  </g>
  <g id="axes_2">
   <g id="patch_5">
    <path d="M 409.089944 272.008895 
L 723.809576 272.008895 
L 723.809576 23.76 
L 409.089944 23.76 
z
" style="fill: #ffffff"/>
   </g>
   <g id="matplotlib.axis_3">
    <g id="xtick_10">
     <g id="line2d_30">
      <path d="M 423.395382 272.008895 
L 423.395382 23.76 
" clip-path="url(#p8517c038ad)" style="fill: none; stroke: #b0b0b0; stroke-opacity: 0.2; stroke-width: 0.8; stroke-linecap: square"/>
     </g>
     <g id="line2d_31">
      <g>
       <use xlink:href="#m8c092d7c2d" x="423.395382" y="272.008895" style="stroke: #000000; stroke-width: 0.8"/>
      </g>
     </g>
     <g id="text_18">
      <!-- 0.0 -->
      <g transform="translate(416.455538 287.808895) scale(0.1 -0.1)">
       <use xlink:href="#NotoSansCJKjp-Regular-11"/>
       <use xlink:href="#NotoSansCJKjp-Regular-f" transform="translate(55.5 0)"/>
       <use xlink:href="#NotoSansCJKjp-Regular-11" transform="translate(83.296875 0)"/>
      </g>
     </g>
    </g>
    <g id="xtick_11">
     <g id="line2d_32">
      <path d="M 459.158976 272.008895 
L 459.158976 23.76 
" clip-path="url(#p8517c038ad)" style="fill: none; stroke: #b0b0b0; stroke-opacity: 0.2; stroke-width: 0.8; stroke-linecap: square"/>
     </g>
     <g id="line2d_33">
      <g>
       <use xlink:href="#m8c092d7c2d" x="459.158976" y="272.008895" style="stroke: #000000; stroke-width: 0.8"/>
      </g>
     </g>
     <g id="text_19">
      <!-- 0.5 -->
      <g transform="translate(452.219133 287.808895) scale(0.1 -0.1)">
       <use xlink:href="#NotoSansCJKjp-Regular-11"/>
       <use xlink:href="#NotoSansCJKjp-Regular-f" transform="translate(55.5 0)"/>
       <use xlink:href="#NotoSansCJKjp-Regular-16" transform="translate(83.296875 0)"/>
      </g>
     </g>
    </g>
    <g id="xtick_12">
     <g id="line2d_34">
      <path d="M 494.922571 272.008895 
L 494.922571 23.76 
" clip-path="url(#p8517c038ad)" style="fill: none; stroke: #b0b0b0; stroke-opacity: 0.2; stroke-width: 0.8; stroke-linecap: square"/>
     </g>
     <g id="line2d_35">
      <g>
       <use xlink:href="#m8c092d7c2d" x="494.922571" y="272.008895" style="stroke: #000000; stroke-width: 0.8"/>
      </g>
     </g>
     <g id="text_20">
      <!-- 1.0 -->
      <g transform="translate(487.982727 287.808895) scale(0.1 -0.1)">
       <use xlink:href="#NotoSansCJKjp-Regular-12"/>
       <use xlink:href="#NotoSansCJKjp-Regular-f" transform="translate(55.5 0)"/>
       <use xlink:href="#NotoSansCJKjp-Regular-11" transform="translate(83.296875 0)"/>
      </g>
     </g>
    </g>
    <g id="xtick_13">
     <g id="line2d_36">
      <path d="M 530.686165 272.008895 
L 530.686165 23.76 
" clip-path="url(#p8517c038ad)" style="fill: none; stroke: #b0b0b0; stroke-opacity: 0.2; stroke-width: 0.8; stroke-linecap: square"/>
     </g>
     <g id="line2d_37">
      <g>
       <use xlink:href="#m8c092d7c2d" x="530.686165" y="272.008895" style="stroke: #000000; stroke-width: 0.8"/>
      </g>
     </g>
     <g id="text_21">
      <!-- 1.5 -->
      <g transform="translate(523.746322 287.808895) scale(0.1 -0.1)">
       <use xlink:href="#NotoSansCJKjp-Regular-12"/>
       <use xlink:href="#NotoSansCJKjp-Regular-f" transform="translate(55.5 0)"/>
       <use xlink:href="#NotoSansCJKjp-Regular-16" transform="translate(83.296875 0)"/>
      </g>
     </g>
    </g>
    <g id="xtick_14">
     <g id="line2d_38">
      <path d="M 566.44976 272.008895 
L 566.44976 23.76 
" clip-path="url(#p8517c038ad)" style="fill: none; stroke: #b0b0b0; stroke-opacity: 0.2; stroke-width: 0.8; stroke-linecap: square"/>
     </g>
     <g id="line2d_39">
      <g>
       <use xlink:href="#m8c092d7c2d" x="566.44976" y="272.008895" style="stroke: #000000; stroke-width: 0.8"/>
      </g>
     </g>
     <g id="text_22">
      <!-- 2.0 -->
      <g transform="translate(559.509916 287.808895) scale(0.1 -0.1)">
       <use xlink:href="#NotoSansCJKjp-Regular-13"/>
       <use xlink:href="#NotoSansCJKjp-Regular-f" transform="translate(55.5 0)"/>
       <use xlink:href="#NotoSansCJKjp-Regular-11" transform="translate(83.296875 0)"/>
      </g>
     </g>
    </g>
    <g id="xtick_15">
     <g id="line2d_40">
      <path d="M 602.213355 272.008895 
L 602.213355 23.76 
" clip-path="url(#p8517c038ad)" style="fill: none; stroke: #b0b0b0; stroke-opacity: 0.2; stroke-width: 0.8; stroke-linecap: square"/>
     </g>
     <g id="line2d_41">
      <g>
       <use xlink:href="#m8c092d7c2d" x="602.213355" y="272.008895" style="stroke: #000000; stroke-width: 0.8"/>
      </g>
     </g>
     <g id="text_23">
      <!-- 2.5 -->
      <g transform="translate(595.273511 287.808895) scale(0.1 -0.1)">
       <use xlink:href="#NotoSansCJKjp-Regular-13"/>
       <use xlink:href="#NotoSansCJKjp-Regular-f" transform="translate(55.5 0)"/>
       <use xlink:href="#NotoSansCJKjp-Regular-16" transform="translate(83.296875 0)"/>
      </g>
     </g>
    </g>
    <g id="xtick_16">
     <g id="line2d_42">
      <path d="M 637.976949 272.008895 
L 637.976949 23.76 
" clip-path="url(#p8517c038ad)" style="fill: none; stroke: #b0b0b0; stroke-opacity: 0.2; stroke-width: 0.8; stroke-linecap: square"/>
     </g>
     <g id="line2d_43">
      <g>
       <use xlink:href="#m8c092d7c2d" x="637.976949" y="272.008895" style="stroke: #000000; stroke-width: 0.8"/>
      </g>
     </g>
     <g id="text_24">
      <!-- 3.0 -->
      <g transform="translate(631.037105 287.808895) scale(0.1 -0.1)">
       <use xlink:href="#NotoSansCJKjp-Regular-14"/>
       <use xlink:href="#NotoSansCJKjp-Regular-f" transform="translate(55.5 0)"/>
       <use xlink:href="#NotoSansCJKjp-Regular-11" transform="translate(83.296875 0)"/>
      </g>
     </g>
    </g>
    <g id="xtick_17">
     <g id="line2d_44">
      <path d="M 673.740544 272.008895 
L 673.740544 23.76 
" clip-path="url(#p8517c038ad)" style="fill: none; stroke: #b0b0b0; stroke-opacity: 0.2; stroke-width: 0.8; stroke-linecap: square"/>
     </g>
     <g id="line2d_45">
      <g>
       <use xlink:href="#m8c092d7c2d" x="673.740544" y="272.008895" style="stroke: #000000; stroke-width: 0.8"/>
      </g>
     </g>
     <g id="text_25">
      <!-- 3.5 -->
      <g transform="translate(666.8007 287.808895) scale(0.1 -0.1)">
       <use xlink:href="#NotoSansCJKjp-Regular-14"/>
       <use xlink:href="#NotoSansCJKjp-Regular-f" transform="translate(55.5 0)"/>
       <use xlink:href="#NotoSansCJKjp-Regular-16" transform="translate(83.296875 0)"/>
      </g>
     </g>
    </g>
    <g id="xtick_18">
     <g id="line2d_46">
      <path d="M 709.504138 272.008895 
L 709.504138 23.76 
" clip-path="url(#p8517c038ad)" style="fill: none; stroke: #b0b0b0; stroke-opacity: 0.2; stroke-width: 0.8; stroke-linecap: square"/>
     </g>
     <g id="line2d_47">
      <g>
       <use xlink:href="#m8c092d7c2d" x="709.504138" y="272.008895" style="stroke: #000000; stroke-width: 0.8"/>
      </g>
     </g>
     <g id="text_26">
      <!-- 4.0 -->
      <g transform="translate(702.564294 287.808895) scale(0.1 -0.1)">
       <use xlink:href="#NotoSansCJKjp-Regular-15"/>
       <use xlink:href="#NotoSansCJKjp-Regular-f" transform="translate(55.5 0)"/>
       <use xlink:href="#NotoSansCJKjp-Regular-11" transform="translate(83.296875 0)"/>
      </g>
     </g>
    </g>
    <g id="text_27">
     <!-- 时间 / h -->
     <g transform="translate(549.213823 301.808895) scale(0.1 -0.1)">
      <use xlink:href="#NotoSansCJKjp-Regular-4f11"/>
      <use xlink:href="#NotoSansCJKjp-Regular-a811" transform="translate(100 0)"/>
      <use xlink:href="#NotoSansCJKjp-Regular-1" transform="translate(200 0)"/>
      <use xlink:href="#NotoSansCJKjp-Regular-10" transform="translate(222.40625 0)"/>
      <use xlink:href="#NotoSansCJKjp-Regular-1" transform="translate(261.609375 0)"/>
      <use xlink:href="#NotoSansCJKjp-Regular-49" transform="translate(284.015625 0)"/>
     </g>
    </g>
   </g>
   <g id="matplotlib.axis_4">
    <g id="ytick_6">
     <g id="line2d_48">
      <path d="M 409.089944 257.997816 
L 723.809576 257.997816 
" clip-path="url(#p8517c038ad)" style="fill: none; stroke: #b0b0b0; stroke-opacity: 0.2; stroke-width: 0.8; stroke-linecap: square"/>
     </g>
     <g id="line2d_49">
      <g>
       <use xlink:href="#mb834122ba8" x="409.089944" y="257.997816" style="stroke: #000000; stroke-width: 0.8"/>
      </g>
     </g>
     <g id="text_28">
      <!-- 0.020 -->
      <g transform="translate(377.110257 262.397816) scale(0.1 -0.1)">
       <use xlink:href="#NotoSansCJKjp-Regular-11"/>
       <use xlink:href="#NotoSansCJKjp-Regular-f" transform="translate(55.5 0)"/>
       <use xlink:href="#NotoSansCJKjp-Regular-11" transform="translate(83.296875 0)"/>
       <use xlink:href="#NotoSansCJKjp-Regular-13" transform="translate(138.796875 0)"/>
       <use xlink:href="#NotoSansCJKjp-Regular-11" transform="translate(194.296875 0)"/>
      </g>
     </g>
    </g>
    <g id="ytick_7">
     <g id="line2d_50">
      <path d="M 409.089944 221.145953 
L 723.809576 221.145953 
" clip-path="url(#p8517c038ad)" style="fill: none; stroke: #b0b0b0; stroke-opacity: 0.2; stroke-width: 0.8; stroke-linecap: square"/>
     </g>
     <g id="line2d_51">
      <g>
       <use xlink:href="#mb834122ba8" x="409.089944" y="221.145953" style="stroke: #000000; stroke-width: 0.8"/>
      </g>
     </g>
     <g id="text_29">
      <!-- 0.025 -->
      <g transform="translate(377.110257 225.545953) scale(0.1 -0.1)">
       <use xlink:href="#NotoSansCJKjp-Regular-11"/>
       <use xlink:href="#NotoSansCJKjp-Regular-f" transform="translate(55.5 0)"/>
       <use xlink:href="#NotoSansCJKjp-Regular-11" transform="translate(83.296875 0)"/>
       <use xlink:href="#NotoSansCJKjp-Regular-13" transform="translate(138.796875 0)"/>
       <use xlink:href="#NotoSansCJKjp-Regular-16" transform="translate(194.296875 0)"/>
      </g>
     </g>
    </g>
    <g id="ytick_8">
     <g id="line2d_52">
      <path d="M 409.089944 184.294089 
L 723.809576 184.294089 
" clip-path="url(#p8517c038ad)" style="fill: none; stroke: #b0b0b0; stroke-opacity: 0.2; stroke-width: 0.8; stroke-linecap: square"/>
     </g>
     <g id="line2d_53">
      <g>
       <use xlink:href="#mb834122ba8" x="409.089944" y="184.294089" style="stroke: #000000; stroke-width: 0.8"/>
      </g>
     </g>
     <g id="text_30">
      <!-- 0.030 -->
      <g transform="translate(377.110257 188.694089) scale(0.1 -0.1)">
       <use xlink:href="#NotoSansCJKjp-Regular-11"/>
       <use xlink:href="#NotoSansCJKjp-Regular-f" transform="translate(55.5 0)"/>
       <use xlink:href="#NotoSansCJKjp-Regular-11" transform="translate(83.296875 0)"/>
       <use xlink:href="#NotoSansCJKjp-Regular-14" transform="translate(138.796875 0)"/>
       <use xlink:href="#NotoSansCJKjp-Regular-11" transform="translate(194.296875 0)"/>
      </g>
     </g>
    </g>
    <g id="ytick_9">
     <g id="line2d_54">
      <path d="M 409.089944 147.442225 
L 723.809576 147.442225 
" clip-path="url(#p8517c038ad)" style="fill: none; stroke: #b0b0b0; stroke-opacity: 0.2; stroke-width: 0.8; stroke-linecap: square"/>
     </g>
     <g id="line2d_55">
      <g>
       <use xlink:href="#mb834122ba8" x="409.089944" y="147.442225" style="stroke: #000000; stroke-width: 0.8"/>
      </g>
     </g>
     <g id="text_31">
      <!-- 0.035 -->
      <g transform="translate(377.110257 151.842225) scale(0.1 -0.1)">
       <use xlink:href="#NotoSansCJKjp-Regular-11"/>
       <use xlink:href="#NotoSansCJKjp-Regular-f" transform="translate(55.5 0)"/>
       <use xlink:href="#NotoSansCJKjp-Regular-11" transform="translate(83.296875 0)"/>
       <use xlink:href="#NotoSansCJKjp-Regular-14" transform="translate(138.796875 0)"/>
       <use xlink:href="#NotoSansCJKjp-Regular-16" transform="translate(194.296875 0)"/>
      </g>
     </g>
    </g>
    <g id="ytick_10">
     <g id="line2d_56">
      <path d="M 409.089944 110.590361 
L 723.809576 110.590361 
" clip-path="url(#p8517c038ad)" style="fill: none; stroke: #b0b0b0; stroke-opacity: 0.2; stroke-width: 0.8; stroke-linecap: square"/>
     </g>
     <g id="line2d_57">
      <g>
       <use xlink:href="#mb834122ba8" x="409.089944" y="110.590361" style="stroke: #000000; stroke-width: 0.8"/>
      </g>
     </g>
     <g id="text_32">
      <!-- 0.040 -->
      <g transform="translate(377.110257 114.990361) scale(0.1 -0.1)">
       <use xlink:href="#NotoSansCJKjp-Regular-11"/>
       <use xlink:href="#NotoSansCJKjp-Regular-f" transform="translate(55.5 0)"/>
       <use xlink:href="#NotoSansCJKjp-Regular-11" transform="translate(83.296875 0)"/>
       <use xlink:href="#NotoSansCJKjp-Regular-15" transform="translate(138.796875 0)"/>
       <use xlink:href="#NotoSansCJKjp-Regular-11" transform="translate(194.296875 0)"/>
      </g>
     </g>
    </g>
    <g id="ytick_11">
     <g id="line2d_58">
      <path d="M 409.089944 73.738498 
L 723.809576 73.738498 
" clip-path="url(#p8517c038ad)" style="fill: none; stroke: #b0b0b0; stroke-opacity: 0.2; stroke-width: 0.8; stroke-linecap: square"/>
     </g>
     <g id="line2d_59">
      <g>
       <use xlink:href="#mb834122ba8" x="409.089944" y="73.738498" style="stroke: #000000; stroke-width: 0.8"/>
      </g>
     </g>
     <g id="text_33">
      <!-- 0.045 -->
      <g transform="translate(377.110257 78.138498) scale(0.1 -0.1)">
       <use xlink:href="#NotoSansCJKjp-Regular-11"/>
       <use xlink:href="#NotoSansCJKjp-Regular-f" transform="translate(55.5 0)"/>
       <use xlink:href="#NotoSansCJKjp-Regular-11" transform="translate(83.296875 0)"/>
       <use xlink:href="#NotoSansCJKjp-Regular-15" transform="translate(138.796875 0)"/>
       <use xlink:href="#NotoSansCJKjp-Regular-16" transform="translate(194.296875 0)"/>
      </g>
     </g>
    </g>
    <g id="ytick_12">
     <g id="line2d_60">
      <path d="M 409.089944 36.886634 
L 723.809576 36.886634 
" clip-path="url(#p8517c038ad)" style="fill: none; stroke: #b0b0b0; stroke-opacity: 0.2; stroke-width: 0.8; stroke-linecap: square"/>
     </g>
     <g id="line2d_61">
      <g>
       <use xlink:href="#mb834122ba8" x="409.089944" y="36.886634" style="stroke: #000000; stroke-width: 0.8"/>
      </g>
     </g>
     <g id="text_34">
      <!-- 0.050 -->
      <g transform="translate(377.110257 41.286634) scale(0.1 -0.1)">
       <use xlink:href="#NotoSansCJKjp-Regular-11"/>
       <use xlink:href="#NotoSansCJKjp-Regular-f" transform="translate(55.5 0)"/>
       <use xlink:href="#NotoSansCJKjp-Regular-11" transform="translate(83.296875 0)"/>
       <use xlink:href="#NotoSansCJKjp-Regular-16" transform="translate(138.796875 0)"/>
       <use xlink:href="#NotoSansCJKjp-Regular-11" transform="translate(194.296875 0)"/>
      </g>
     </g>
    </g>
    <g id="text_35">
     <!-- 烘房水分浓度 / (kg/kg) -->
     <g transform="translate(370.610257 198.741479) rotate(-90) scale(0.1 -0.1)">
      <defs>
       <path id="NotoSansCJKjp-Regular-59e1" d="M 352 3738 
L 352 3251 
L 2029 3251 
C 1709 1971 1030 1011 186 486 
C 307 416 493 224 576 109 
C 1517 742 2298 1946 2624 3629 
L 2298 3757 
L 2208 3738 
L 352 3738 
z
M 5523 4339 
C 5146 3827 4525 3187 4000 2739 
C 3782 3194 3603 3686 3462 4192 
L 3462 5363 
L 2957 5363 
L 2957 166 
C 2957 45 2912 6 2784 0 
C 2656 -6 2246 -6 1779 6 
C 1856 -134 1952 -378 1978 -518 
C 2573 -518 2938 -499 3155 -416 
C 3373 -326 3462 -173 3462 166 
L 3462 2925 
C 3974 1606 4742 525 5850 -19 
C 5939 122 6099 320 6221 416 
C 5370 787 4704 1485 4205 2349 
C 4762 2790 5453 3462 5965 4026 
L 5523 4339 
z
" transform="scale(0.015625)"/>
       <path id="NotoSansCJKjp-Regular-2b86" d="M 2074 5248 
C 1677 4256 966 3373 147 2829 
C 262 2739 474 2554 563 2451 
C 1363 3059 2118 4019 2586 5101 
L 2074 5248 
z
M 4307 5261 
L 3846 5075 
C 4326 4122 5139 3085 5850 2509 
C 5939 2643 6118 2829 6253 2931 
C 5549 3424 4723 4397 4307 5261 
z
M 1197 2957 
L 1197 2490 
L 2509 2490 
C 2368 1402 2010 378 486 -122 
C 595 -224 736 -416 800 -544 
C 2445 51 2854 1216 3027 2490 
L 4685 2490 
C 4608 864 4512 224 4346 58 
C 4282 -6 4205 -26 4077 -26 
C 3923 -26 3533 -19 3110 19 
C 3200 -115 3258 -320 3270 -461 
C 3674 -486 4070 -493 4288 -474 
C 4506 -454 4653 -410 4781 -243 
C 5005 0 5094 736 5190 2726 
C 5197 2790 5197 2957 5197 2957 
L 1197 2957 
z
" transform="scale(0.015625)"/>
       <path id="NotoSansCJKjp-Regular-5b86" d="M 557 4941 
C 902 4730 1350 4403 1562 4186 
L 1888 4538 
C 1664 4742 1210 5056 864 5254 
L 557 4941 
z
M 230 3206 
C 582 3002 1024 2694 1229 2490 
L 1542 2848 
C 1318 3053 870 3341 531 3533 
L 230 3206 
z
M 2682 -480 
C 2803 -384 3008 -294 4378 192 
C 4352 294 4320 480 4314 614 
L 3213 250 
L 3213 2381 
L 3187 2381 
C 3456 2752 3680 3174 3866 3654 
C 4173 1818 4736 410 5914 -320 
C 5990 -192 6144 -13 6246 77 
C 5638 416 5190 973 4870 1683 
C 5216 1907 5645 2202 5971 2477 
L 5645 2816 
C 5414 2586 5037 2291 4710 2061 
C 4506 2624 4358 3270 4262 3962 
L 5530 3962 
L 5530 3309 
L 5984 3309 
L 5984 4384 
L 4102 4384 
C 4179 4659 4243 4947 4301 5248 
L 3834 5312 
C 3776 4986 3712 4678 3629 4384 
L 1997 4384 
L 1997 3309 
L 2432 3309 
L 2432 3962 
L 3494 3962 
C 3123 2912 2541 2125 1638 1600 
L 1645 1613 
L 1229 1811 
C 973 1133 608 352 352 -115 
L 819 -314 
C 1075 205 1376 915 1619 1542 
C 1728 1459 1888 1306 1952 1229 
C 2259 1421 2528 1645 2771 1888 
L 2771 358 
C 2771 102 2592 -13 2477 -64 
C 2554 -166 2650 -365 2682 -480 
z
" transform="scale(0.015625)"/>
       <path id="NotoSansCJKjp-Regular-9" d="M 1530 -1254 
L 1888 -1094 
C 1338 -186 1075 902 1075 1990 
C 1075 3072 1338 4154 1888 5069 
L 1530 5235 
C 941 4275 589 3245 589 1990 
C 589 730 941 -301 1530 -1254 
z
" transform="scale(0.015625)"/>
       <path id="NotoSansCJKjp-Regular-4c" d="M 589 0 
L 1165 0 
L 1165 915 
L 1818 1677 
L 2835 0 
L 3469 0 
L 2157 2074 
L 3315 3475 
L 2662 3475 
L 1190 1645 
L 1165 1645 
L 1165 5094 
L 589 5094 
L 589 0 
z
" transform="scale(0.015625)"/>
       <path id="NotoSansCJKjp-Regular-48" d="M 1760 -1600 
C 2835 -1600 3520 -1043 3520 -397 
C 3520 179 3110 429 2310 429 
L 1626 429 
C 1158 429 1018 589 1018 806 
C 1018 998 1114 1114 1242 1222 
C 1395 1146 1587 1101 1754 1101 
C 2470 1101 3027 1568 3027 2310 
C 3027 2611 2912 2867 2746 3027 
L 3456 3027 
L 3456 3475 
L 2246 3475 
C 2125 3526 1952 3565 1754 3565 
C 1056 3565 454 3085 454 2323 
C 454 1907 678 1568 909 1389 
L 909 1363 
C 723 1235 525 1005 525 717 
C 525 442 659 256 838 147 
L 838 115 
C 512 -83 326 -371 326 -672 
C 326 -1267 915 -1600 1760 -1600 
z
M 1754 1498 
C 1357 1498 1018 1818 1018 2323 
C 1018 2835 1350 3136 1754 3136 
C 2170 3136 2496 2835 2496 2323 
C 2496 1818 2157 1498 1754 1498 
z
M 1843 -1197 
C 1210 -1197 838 -960 838 -589 
C 838 -390 941 -179 1190 0 
C 1344 -38 1510 -51 1638 -51 
L 2240 -51 
C 2701 -51 2944 -166 2944 -493 
C 2944 -851 2515 -1197 1843 -1197 
z
" transform="scale(0.015625)"/>
       <path id="NotoSansCJKjp-Regular-a" d="M 634 -1254 
C 1222 -301 1574 730 1574 1990 
C 1574 3245 1222 4275 634 5235 
L 269 5069 
C 819 4154 1094 3072 1094 1990 
C 1094 902 819 -186 269 -1094 
L 634 -1254 
z
" transform="scale(0.015625)"/>
      </defs>
      <use xlink:href="#NotoSansCJKjp-Regular-61d3"/>
      <use xlink:href="#NotoSansCJKjp-Regular-48a2" transform="translate(100 0)"/>
      <use xlink:href="#NotoSansCJKjp-Regular-59e1" transform="translate(200 0)"/>
      <use xlink:href="#NotoSansCJKjp-Regular-2b86" transform="translate(300 0)"/>
      <use xlink:href="#NotoSansCJKjp-Regular-5b86" transform="translate(400 0)"/>
      <use xlink:href="#NotoSansCJKjp-Regular-4231" transform="translate(500 0)"/>
      <use xlink:href="#NotoSansCJKjp-Regular-1" transform="translate(600 0)"/>
      <use xlink:href="#NotoSansCJKjp-Regular-10" transform="translate(622.40625 0)"/>
      <use xlink:href="#NotoSansCJKjp-Regular-1" transform="translate(661.609375 0)"/>
      <use xlink:href="#NotoSansCJKjp-Regular-9" transform="translate(684.015625 0)"/>
      <use xlink:href="#NotoSansCJKjp-Regular-4c" transform="translate(717.8125 0)"/>
      <use xlink:href="#NotoSansCJKjp-Regular-48" transform="translate(771.921875 0)"/>
      <use xlink:href="#NotoSansCJKjp-Regular-10" transform="translate(833.625 0)"/>
      <use xlink:href="#NotoSansCJKjp-Regular-4c" transform="translate(872.828125 0)"/>
      <use xlink:href="#NotoSansCJKjp-Regular-48" transform="translate(926.9375 0)"/>
      <use xlink:href="#NotoSansCJKjp-Regular-a" transform="translate(983.34375 0)"/>
     </g>
    </g>
   </g>
   <g id="line2d_62">
    <path d="M 423.395382 260.724854 
L 424.587502 257.850409 
L 428.163861 246.868554 
L 430.548101 240.824848 
L 432.932341 234.044105 
L 435.31658 226.452621 
L 436.5087 223.725583 
L 437.70082 220.70373 
L 438.89294 217.313359 
L 440.085059 212.891135 
L 441.277179 209.353356 
L 442.469299 207.363356 
L 443.661419 204.046688 
L 444.853539 199.55076 
L 446.045658 197.118537 
L 447.237778 192.327795 
L 448.429898 190.116683 
L 449.622018 187.168534 
L 450.814138 182.156681 
L 452.006258 180.535199 
L 453.198377 177.071124 
L 455.582617 171.101122 
L 457.966857 164.983712 
L 459.158976 161.667045 
L 460.351096 158.866303 
L 461.543216 154.591487 
L 462.735336 151.348523 
L 463.927456 149.211115 
L 465.119576 146.484077 
L 466.311695 143.167409 
L 467.503815 139.408519 
L 468.695935 136.681481 
L 469.888055 136.165555 
L 472.272294 130.416664 
L 473.464414 127.837034 
L 474.656534 124.446662 
L 475.848654 122.382958 
L 477.040774 121.056291 
L 478.232894 117.739623 
L 479.425013 115.012585 
L 480.617133 113.980733 
L 481.809253 109.632213 
L 483.001373 109.77962 
L 484.193493 104.988878 
L 485.385612 105.4311 
L 486.577732 101.156284 
L 488.961972 96.807764 
L 490.154092 95.481097 
L 491.346212 93.712208 
L 492.538331 92.385541 
L 493.730451 90.174429 
L 494.922571 90.542947 
L 496.114691 87.594798 
L 497.306811 86.04702 
L 498.49893 83.393686 
L 499.69105 83.098871 
L 500.88317 81.919611 
L 502.07529 79.634796 
L 503.26741 79.487388 
L 504.45953 78.52924 
L 505.651649 76.097017 
L 506.843769 74.991461 
L 508.035889 74.401831 
L 509.228009 72.706645 
L 510.420129 71.527386 
L 511.612248 70.569237 
L 512.804368 69.24257 
L 513.996488 67.178866 
L 515.188608 67.473681 
L 516.380728 64.230717 
L 517.572848 63.346272 
L 518.764967 63.935902 
L 519.957087 63.49368 
L 521.149207 61.945901 
L 522.341327 59.955901 
L 523.533447 59.808493 
L 524.725566 58.481826 
L 525.917686 58.629233 
L 527.109806 57.523678 
L 528.301926 58.039604 
L 529.494046 55.754788 
L 530.686165 56.934048 
L 531.878285 54.575528 
L 533.070405 53.322565 
L 534.262525 55.238862 
L 535.454645 52.954046 
L 536.646765 54.20701 
L 537.838884 51.479972 
L 539.031004 53.175158 
L 540.223124 49.637379 
L 541.415244 51.995898 
L 542.607364 48.605527 
L 543.799483 48.67923 
L 544.991603 48.974045 
L 546.183723 47.868489 
L 547.375843 47.352563 
L 548.567963 46.394415 
L 549.760083 48.531823 
L 550.952202 46.910341 
L 552.144322 48.310712 
L 553.336442 46.0996 
L 554.528562 47.352563 
L 555.720682 45.583674 
L 556.912801 45.288859 
L 558.104921 45.362563 
L 559.297041 44.846636 
L 560.489161 43.667377 
L 561.681281 43.298858 
L 562.873401 44.109599 
L 564.06552 43.446266 
L 565.25764 42.045895 
L 566.44976 44.699229 
L 567.64188 44.478118 
L 568.834 44.404414 
L 570.026119 42.119599 
L 571.218239 42.782932 
L 572.410359 41.235154 
L 573.602479 41.456265 
L 574.794599 42.488117 
L 575.986719 40.277005 
L 577.178838 40.57182 
L 578.370958 42.193302 
L 579.563078 41.677376 
L 580.755198 41.75108 
L 581.947318 42.119599 
L 583.139437 42.045895 
L 584.331557 39.024042 
L 585.523677 40.719228 
L 586.715797 40.792931 
L 587.907917 39.392561 
L 589.100037 39.908487 
L 590.292156 38.360708 
L 591.484276 38.876635 
L 592.676396 39.834783 
L 593.868516 40.129598 
L 595.060636 37.771079 
L 596.252755 38.655523 
L 597.444875 37.697375 
L 598.636995 40.645524 
L 599.829115 37.918486 
L 601.021235 38.58182 
L 602.213355 38.287005 
L 603.405474 36.591819 
L 604.597594 36.2233 
L 605.789714 38.655523 
L 606.981834 37.034041 
L 608.173954 35.707374 
L 609.366073 37.623671 
L 610.558193 37.034041 
L 611.750313 37.107745 
L 612.942433 37.623671 
L 614.134553 35.338856 
L 615.326672 35.854782 
L 616.518792 38.287005 
L 617.710912 35.044041 
L 618.903032 35.486263 
L 620.095152 37.697375 
L 621.287272 35.633671 
L 622.479391 38.360708 
L 623.671511 35.044041 
L 624.863631 36.297004 
L 626.055751 36.297004 
L 627.247871 38.360708 
L 628.43999 35.412559 
L 629.63211 38.655523 
L 630.82423 37.844782 
L 632.01635 38.213301 
L 633.20847 35.854782 
L 634.40059 37.99219 
L 635.592709 35.338856 
L 636.784829 36.297004 
L 637.976949 38.58182 
L 639.169069 38.729227 
L 640.361189 38.508116 
L 641.553308 36.518115 
L 642.745428 35.781078 
L 643.937548 37.844782 
L 645.129668 35.633671 
L 646.321788 38.508116 
L 647.513908 35.781078 
L 648.706027 35.338856 
L 649.898147 35.854782 
L 651.090267 36.149597 
L 652.282387 35.633671 
L 653.474507 38.58182 
L 654.666626 37.99219 
L 655.858746 38.287005 
L 657.050866 36.886634 
L 658.242986 36.002189 
L 659.435106 36.370708 
L 660.627226 35.559967 
L 661.819345 38.139597 
L 663.011465 36.002189 
L 664.203585 37.99219 
L 665.395705 37.697375 
L 666.587825 36.149597 
L 667.779944 35.117744 
L 668.972064 36.444412 
L 670.164184 38.508116 
L 671.356304 36.444412 
L 672.548424 38.58182 
L 673.740544 35.486263 
L 674.932663 36.149597 
L 676.124783 38.065894 
L 677.316903 38.360708 
L 678.509023 38.065894 
L 679.701143 35.117744 
L 680.893262 37.034041 
L 682.085382 35.854782 
L 683.277502 36.370708 
L 684.469622 36.591819 
L 685.661742 38.213301 
L 686.853862 35.265152 
L 688.045981 37.623671 
L 689.238101 36.591819 
L 690.430221 36.149597 
L 691.622341 36.370708 
L 692.814461 35.265152 
L 694.00658 38.213301 
L 695.1987 36.886634 
L 696.39082 37.255153 
L 697.58294 36.960338 
L 698.77506 38.287005 
L 699.967179 38.213301 
L 701.159299 37.697375 
L 702.351419 37.623671 
L 703.543539 37.181449 
L 704.735659 36.444412 
L 705.927779 36.370708 
L 707.119898 37.181449 
L 708.312018 37.255153 
L 709.504138 37.918486 
L 709.504138 37.918486 
" clip-path="url(#p8517c038ad)" style="fill: none; stroke: #39846b; stroke-width: 1.5; stroke-linecap: square"/>
   </g>
   <g id="patch_6">
    <path d="M 409.089944 272.008895 
L 409.089944 23.76 
" style="fill: none; stroke: #000000; stroke-width: 0.8; stroke-linejoin: miter; stroke-linecap: square"/>
   </g>
   <g id="patch_7">
    <path d="M 409.089944 272.008895 
L 723.809576 272.008895 
" style="fill: none; stroke: #000000; stroke-width: 0.8; stroke-linejoin: miter; stroke-linecap: square"/>
   </g>
   <g id="text_36">
    <!-- 外界浓度并非药材内部含水率 -->
    <g transform="translate(488.44976 17.76) scale(0.12 -0.12)">
     <defs>
      <path id="NotoSansCJKjp-Regular-36d9" d="M 1715 3942 
L 2963 3942 
C 2848 3290 2669 2714 2438 2208 
C 2131 2477 1664 2803 1242 3046 
C 1414 3322 1574 3622 1715 3942 
z
M 3661 3859 
L 3418 3763 
C 3450 3942 3488 4122 3514 4307 
L 3200 4416 
L 3110 4397 
L 1901 4397 
C 2010 4678 2106 4979 2189 5280 
L 1715 5382 
C 1414 4224 883 3162 166 2502 
C 288 2432 493 2278 576 2195 
C 723 2342 864 2509 992 2688 
C 1440 2413 1926 2054 2221 1766 
C 1734 902 1082 282 320 -122 
C 435 -192 614 -371 698 -480 
C 1914 205 2893 1491 3360 3520 
C 3622 3078 3955 2650 4320 2259 
L 4320 -499 
L 4813 -499 
L 4813 1786 
C 5184 1459 5574 1184 5965 986 
C 6042 1114 6189 1299 6304 1395 
C 5792 1626 5274 1984 4813 2413 
L 4813 5370 
L 4320 5370 
L 4320 2925 
C 4058 3219 3834 3539 3661 3859 
z
" transform="scale(0.015625)"/>
      <path id="NotoSansCJKjp-Regular-41db" d="M 4538 5395 
C 4390 5043 4109 4544 3885 4237 
L 4301 4083 
C 4531 4371 4826 4826 5069 5229 
L 4538 5395 
z
M 4109 3597 
L 4109 2202 
L 2304 2202 
L 2304 2355 
L 2304 3597 
L 4109 3597 
z
M 333 2202 
L 333 1741 
L 1792 1741 
C 1696 1024 1376 326 333 -192 
C 442 -275 602 -448 666 -557 
C 1843 45 2189 883 2278 1741 
L 4109 1741 
L 4109 -512 
L 4595 -512 
L 4595 1741 
L 6074 1741 
L 6074 2202 
L 4595 2202 
L 4595 3597 
L 5875 3597 
L 5875 4058 
L 570 4058 
L 570 3597 
L 1824 3597 
L 1824 2368 
L 1824 2202 
L 333 2202 
z
M 1395 5203 
C 1664 4851 1952 4371 2054 4058 
L 2509 4262 
C 2387 4570 2093 5030 1818 5376 
L 1395 5203 
z
" transform="scale(0.015625)"/>
      <path id="NotoSansCJKjp-Regular-aa9c" d="M 3693 5344 
L 3693 -512 
L 4173 -512 
L 4173 1043 
L 6131 1043 
L 6131 1498 
L 4173 1498 
L 4173 2522 
L 5888 2522 
L 5888 2963 
L 4173 2963 
L 4173 3949 
L 6022 3949 
L 6022 4403 
L 4173 4403 
L 4173 5344 
L 3693 5344 
z
M 2163 5344 
L 2163 4403 
L 493 4403 
L 493 3949 
L 2163 3949 
L 2163 2963 
L 563 2963 
L 563 2522 
L 2163 2522 
L 2163 2355 
C 2163 2163 2144 1914 2086 1651 
C 1382 1536 730 1434 256 1363 
L 352 890 
L 1933 1178 
C 1709 653 1286 122 493 -218 
C 602 -314 762 -467 838 -582 
C 1811 -122 2272 602 2477 1274 
L 3155 1402 
L 3136 1830 
L 2579 1734 
C 2618 1958 2630 2170 2630 2355 
L 2630 5344 
L 2163 5344 
z
" transform="scale(0.015625)"/>
      <path id="NotoSansCJKjp-Regular-8547" d="M 3469 2118 
C 3770 1722 4064 1178 4166 832 
L 4589 1005 
C 4474 1357 4166 1875 3859 2266 
L 3469 2118 
z
M 358 186 
L 442 -262 
C 1075 -160 1952 -13 2803 128 
L 2778 550 
C 1875 403 960 262 358 186 
z
M 3661 4064 
C 3462 3392 3104 2733 2688 2298 
C 2803 2234 2995 2106 3085 2029 
C 3296 2272 3501 2579 3680 2918 
L 5389 2918 
C 5312 973 5222 243 5062 64 
C 5005 -6 4941 -26 4826 -19 
C 4710 -19 4410 -19 4090 6 
C 4166 -122 4224 -314 4237 -454 
C 4538 -467 4851 -474 5024 -454 
C 5222 -435 5350 -384 5472 -230 
C 5683 26 5766 819 5862 3104 
C 5869 3174 5869 3341 5869 3341 
L 3885 3341 
C 3968 3546 4051 3750 4115 3962 
L 3661 4064 
z
M 397 4851 
L 397 4422 
L 1843 4422 
L 1843 3974 
L 2310 3974 
L 2310 4422 
L 4051 4422 
L 4051 4006 
L 4518 4006 
L 4518 4422 
L 6022 4422 
L 6022 4851 
L 4518 4851 
L 4518 5376 
L 4051 5376 
L 4051 4851 
L 2310 4851 
L 2310 5376 
L 1843 5376 
L 1843 4851 
L 397 4851 
z
M 557 806 
C 704 870 934 922 2682 1152 
C 2682 1248 2688 1434 2707 1555 
L 1261 1382 
C 1760 1843 2253 2406 2701 2995 
L 2310 3206 
C 2182 3008 2035 2810 1882 2624 
L 1043 2573 
C 1370 2931 1690 3379 1958 3834 
L 1536 4019 
C 1267 3462 832 2906 704 2765 
C 576 2611 467 2515 365 2496 
C 416 2381 480 2163 506 2067 
C 602 2112 755 2144 1536 2208 
C 1267 1901 1024 1658 915 1568 
C 717 1370 557 1248 422 1222 
C 480 1107 538 896 557 806 
z
" transform="scale(0.015625)"/>
      <path id="NotoSansCJKjp-Regular-514d" d="M 4973 5370 
L 4973 4000 
L 3053 4000 
L 3053 3539 
L 4813 3539 
C 4326 2528 3488 1453 2682 902 
C 2797 806 2944 634 3021 506 
C 3731 1050 4461 1958 4973 2874 
L 4973 141 
C 4973 26 4928 -13 4813 -13 
C 4691 -19 4275 -26 3866 -13 
C 3930 -147 4006 -371 4032 -506 
C 4582 -506 4960 -493 5171 -410 
C 5389 -333 5472 -192 5472 147 
L 5472 3539 
L 6138 3539 
L 6138 4000 
L 5472 4000 
L 5472 5370 
L 4973 5370 
z
M 1453 5376 
L 1453 4006 
L 384 4006 
L 384 3539 
L 1389 3539 
C 1139 2650 653 1658 166 1120 
C 250 998 378 800 435 659 
C 813 1107 1178 1837 1453 2592 
L 1453 -506 
L 1933 -506 
L 1933 2797 
C 2202 2451 2534 1997 2675 1760 
L 2982 2170 
C 2822 2368 2163 3136 1933 3373 
L 1933 3539 
L 2816 3539 
L 2816 4006 
L 1933 4006 
L 1933 5376 
L 1453 5376 
z
" transform="scale(0.015625)"/>
      <path id="NotoSansCJKjp-Regular-2ac2" d="M 634 4282 
L 634 -525 
L 1107 -525 
L 1107 3808 
L 2957 3808 
C 2925 2963 2688 1907 1274 1146 
C 1389 1062 1549 883 1619 781 
C 2483 1286 2944 1894 3187 2509 
C 3776 1965 4422 1299 4749 864 
L 5146 1178 
C 4749 1658 3968 2406 3334 2970 
C 3398 3258 3430 3539 3443 3808 
L 5306 3808 
L 5306 128 
C 5306 13 5274 -26 5146 -32 
C 5018 -32 4582 -38 4128 -19 
C 4198 -154 4275 -371 4294 -506 
C 4870 -506 5267 -506 5491 -429 
C 5709 -346 5779 -192 5779 122 
L 5779 4282 
L 3450 4282 
L 3450 5376 
L 2963 5376 
L 2963 4282 
L 634 4282 
z
" transform="scale(0.015625)"/>
      <path id="NotoSansCJKjp-Regular-9f27" d="M 269 2893 
L 269 2458 
L 3578 2458 
L 3578 2893 
L 269 2893 
z
M 832 4019 
C 960 3686 1075 3258 1101 2970 
L 1530 3078 
C 1491 3354 1376 3782 1229 4102 
L 832 4019 
z
M 2662 4147 
C 2586 3827 2432 3354 2304 3059 
L 2694 2950 
C 2829 3232 2982 3661 3123 4038 
L 2662 4147 
z
M 3840 4998 
L 3840 -512 
L 4307 -512 
L 4307 4544 
L 5523 4544 
C 5318 4032 5043 3334 4768 2797 
C 5421 2234 5606 1747 5613 1350 
C 5613 1114 5562 928 5427 838 
C 5350 794 5254 774 5146 768 
C 5024 762 4838 762 4646 781 
C 4730 640 4774 442 4781 307 
C 4973 294 5178 294 5344 314 
C 5504 333 5645 378 5760 454 
C 5984 602 6080 902 6080 1299 
C 6074 1754 5914 2259 5267 2861 
C 5568 3443 5901 4186 6157 4794 
L 5811 5018 
L 5728 4998 
L 3840 4998 
z
M 1715 5350 
L 1715 4666 
L 429 4666 
L 429 4237 
L 3488 4237 
L 3488 4666 
L 2182 4666 
L 2182 5350 
L 1715 5350 
z
M 698 1894 
L 698 -518 
L 1146 -518 
L 1146 -141 
L 2752 -141 
L 2752 -486 
L 3219 -486 
L 3219 1894 
L 698 1894 
z
M 1146 288 
L 1146 1472 
L 2752 1472 
L 2752 288 
L 1146 288 
z
" transform="scale(0.015625)"/>
      <path id="NotoSansCJKjp-Regular-2ee0" d="M 1984 4006 
L 1984 3635 
L 4467 3635 
L 4467 3981 
C 4941 3693 5446 3443 5907 3270 
C 5984 3398 6093 3571 6195 3680 
C 5203 4000 4096 4640 3379 5389 
L 2918 5389 
C 2387 4730 1318 4019 230 3610 
C 320 3507 442 3334 493 3226 
C 1011 3437 1523 3706 1984 4006 
z
M 3174 4986 
C 3482 4659 3904 4339 4371 4045 
L 2042 4045 
C 2502 4352 2899 4678 3174 4986 
z
M 1222 1734 
L 1222 -518 
L 1690 -518 
L 1690 -269 
L 4736 -269 
L 4736 -518 
L 5222 -518 
L 5222 1734 
L 4397 1734 
C 4653 2138 4922 2598 5120 3002 
L 4762 3130 
L 4672 3104 
L 1101 3104 
L 1101 2675 
L 4397 2675 
C 4230 2381 4032 2029 3846 1741 
L 3866 1734 
L 1222 1734 
z
M 1690 154 
L 1690 1312 
L 4736 1312 
L 4736 154 
L 1690 154 
z
" transform="scale(0.015625)"/>
      <path id="NotoSansCJKjp-Regular-66cd" d="M 5376 4038 
C 5139 3782 4704 3437 4384 3226 
L 4736 3014 
C 5056 3226 5472 3520 5798 3821 
L 5376 4038 
z
M 320 1997 
L 557 1613 
C 986 1798 1517 2048 2022 2291 
L 1933 2656 
C 1338 2406 730 2150 320 1997 
z
M 544 3680 
C 902 3482 1344 3174 1555 2957 
L 1888 3258 
C 1670 3469 1222 3757 864 3949 
L 544 3680 
z
M 4262 2458 
C 4768 2202 5408 1811 5715 1542 
L 6067 1850 
C 5734 2112 5094 2490 4595 2733 
L 4262 2458 
z
M 3526 2707 
C 3654 2566 3782 2400 3904 2227 
L 2810 2176 
C 3264 2618 3763 3168 4147 3642 
L 3770 3827 
C 3590 3571 3347 3270 3091 2976 
C 2957 3098 2784 3226 2598 3347 
C 2810 3578 3046 3878 3251 4154 
L 3110 4211 
L 5882 4211 
L 5882 4659 
L 3424 4659 
L 3424 5376 
L 2938 5376 
L 2938 4659 
L 538 4659 
L 538 4211 
L 2771 4211 
C 2643 4000 2470 3750 2310 3546 
L 2131 3654 
L 1894 3373 
C 2202 3174 2579 2906 2822 2682 
C 2650 2490 2470 2310 2304 2150 
L 1811 2131 
L 1882 1715 
L 4128 1882 
C 4211 1747 4275 1626 4320 1517 
L 4691 1709 
C 4550 2035 4192 2515 3872 2874 
L 3526 2707 
z
M 346 1222 
L 346 774 
L 2938 774 
L 2938 -531 
L 3424 -531 
L 3424 774 
L 6061 774 
L 6061 1222 
L 3424 1222 
L 3424 1722 
L 2938 1722 
L 2938 1222 
L 346 1222 
z
" transform="scale(0.015625)"/>
     </defs>
     <use xlink:href="#NotoSansCJKjp-Regular-36d9"/>
     <use xlink:href="#NotoSansCJKjp-Regular-69e1" transform="translate(100 0)"/>
     <use xlink:href="#NotoSansCJKjp-Regular-5b86" transform="translate(200 0)"/>
     <use xlink:href="#NotoSansCJKjp-Regular-4231" transform="translate(300 0)"/>
     <use xlink:href="#NotoSansCJKjp-Regular-41db" transform="translate(400 0)"/>
     <use xlink:href="#NotoSansCJKjp-Regular-aa9c" transform="translate(500 0)"/>
     <use xlink:href="#NotoSansCJKjp-Regular-8547" transform="translate(600 0)"/>
     <use xlink:href="#NotoSansCJKjp-Regular-514d" transform="translate(700 0)"/>
     <use xlink:href="#NotoSansCJKjp-Regular-2ac2" transform="translate(800 0)"/>
     <use xlink:href="#NotoSansCJKjp-Regular-9f27" transform="translate(900 0)"/>
     <use xlink:href="#NotoSansCJKjp-Regular-2ee0" transform="translate(1000 0)"/>
     <use xlink:href="#NotoSansCJKjp-Regular-59e1" transform="translate(1100 0)"/>
     <use xlink:href="#NotoSansCJKjp-Regular-66cd" transform="translate(1200 0)"/>
    </g>
   </g>
  </g>
  <g id="axes_3">
   <g id="patch_8">
    <path d="M 766.479888 272.008895 
L 1081.19952 272.008895 
L 1081.19952 23.76 
L 766.479888 23.76 
z
" style="fill: #ffffff"/>
   </g>
   <g id="matplotlib.axis_5">
    <g id="xtick_19">
     <g id="line2d_63">
      <path d="M 780.785326 272.008895 
L 780.785326 23.76 
" clip-path="url(#p643858adcf)" style="fill: none; stroke: #b0b0b0; stroke-opacity: 0.2; stroke-width: 0.8; stroke-linecap: square"/>
     </g>
     <g id="line2d_64">
      <g>
       <use xlink:href="#m8c092d7c2d" x="780.785326" y="272.008895" style="stroke: #000000; stroke-width: 0.8"/>
      </g>
     </g>
     <g id="text_37">
      <!-- 0 -->
      <g transform="translate(778.010326 287.808895) scale(0.1 -0.1)">
       <use xlink:href="#NotoSansCJKjp-Regular-11"/>
      </g>
     </g>
    </g>
    <g id="xtick_20">
     <g id="line2d_65">
      <path d="M 820.522653 272.008895 
L 820.522653 23.76 
" clip-path="url(#p643858adcf)" style="fill: none; stroke: #b0b0b0; stroke-opacity: 0.2; stroke-width: 0.8; stroke-linecap: square"/>
     </g>
     <g id="line2d_66">
      <g>
       <use xlink:href="#m8c092d7c2d" x="820.522653" y="272.008895" style="stroke: #000000; stroke-width: 0.8"/>
      </g>
     </g>
     <g id="text_38">
      <!-- 10 -->
      <g transform="translate(814.972653 287.808895) scale(0.1 -0.1)">
       <use xlink:href="#NotoSansCJKjp-Regular-12"/>
       <use xlink:href="#NotoSansCJKjp-Regular-11" transform="translate(55.5 0)"/>
      </g>
     </g>
    </g>
    <g id="xtick_21">
     <g id="line2d_67">
      <path d="M 860.259981 272.008895 
L 860.259981 23.76 
" clip-path="url(#p643858adcf)" style="fill: none; stroke: #b0b0b0; stroke-opacity: 0.2; stroke-width: 0.8; stroke-linecap: square"/>
     </g>
     <g id="line2d_68">
      <g>
       <use xlink:href="#m8c092d7c2d" x="860.259981" y="272.008895" style="stroke: #000000; stroke-width: 0.8"/>
      </g>
     </g>
     <g id="text_39">
      <!-- 20 -->
      <g transform="translate(854.709981 287.808895) scale(0.1 -0.1)">
       <use xlink:href="#NotoSansCJKjp-Regular-13"/>
       <use xlink:href="#NotoSansCJKjp-Regular-11" transform="translate(55.5 0)"/>
      </g>
     </g>
    </g>
    <g id="xtick_22">
     <g id="line2d_69">
      <path d="M 899.997308 272.008895 
L 899.997308 23.76 
" clip-path="url(#p643858adcf)" style="fill: none; stroke: #b0b0b0; stroke-opacity: 0.2; stroke-width: 0.8; stroke-linecap: square"/>
     </g>
     <g id="line2d_70">
      <g>
       <use xlink:href="#m8c092d7c2d" x="899.997308" y="272.008895" style="stroke: #000000; stroke-width: 0.8"/>
      </g>
     </g>
     <g id="text_40">
      <!-- 30 -->
      <g transform="translate(894.447308 287.808895) scale(0.1 -0.1)">
       <use xlink:href="#NotoSansCJKjp-Regular-14"/>
       <use xlink:href="#NotoSansCJKjp-Regular-11" transform="translate(55.5 0)"/>
      </g>
     </g>
    </g>
    <g id="xtick_23">
     <g id="line2d_71">
      <path d="M 939.734635 272.008895 
L 939.734635 23.76 
" clip-path="url(#p643858adcf)" style="fill: none; stroke: #b0b0b0; stroke-opacity: 0.2; stroke-width: 0.8; stroke-linecap: square"/>
     </g>
     <g id="line2d_72">
      <g>
       <use xlink:href="#m8c092d7c2d" x="939.734635" y="272.008895" style="stroke: #000000; stroke-width: 0.8"/>
      </g>
     </g>
     <g id="text_41">
      <!-- 40 -->
      <g transform="translate(934.184635 287.808895) scale(0.1 -0.1)">
       <use xlink:href="#NotoSansCJKjp-Regular-15"/>
       <use xlink:href="#NotoSansCJKjp-Regular-11" transform="translate(55.5 0)"/>
      </g>
     </g>
    </g>
    <g id="xtick_24">
     <g id="line2d_73">
      <path d="M 979.471962 272.008895 
L 979.471962 23.76 
" clip-path="url(#p643858adcf)" style="fill: none; stroke: #b0b0b0; stroke-opacity: 0.2; stroke-width: 0.8; stroke-linecap: square"/>
     </g>
     <g id="line2d_74">
      <g>
       <use xlink:href="#m8c092d7c2d" x="979.471962" y="272.008895" style="stroke: #000000; stroke-width: 0.8"/>
      </g>
     </g>
     <g id="text_42">
      <!-- 50 -->
      <g transform="translate(973.921962 287.808895) scale(0.1 -0.1)">
       <use xlink:href="#NotoSansCJKjp-Regular-16"/>
       <use xlink:href="#NotoSansCJKjp-Regular-11" transform="translate(55.5 0)"/>
      </g>
     </g>
    </g>
    <g id="xtick_25">
     <g id="line2d_75">
      <path d="M 1019.20929 272.008895 
L 1019.20929 23.76 
" clip-path="url(#p643858adcf)" style="fill: none; stroke: #b0b0b0; stroke-opacity: 0.2; stroke-width: 0.8; stroke-linecap: square"/>
     </g>
     <g id="line2d_76">
      <g>
       <use xlink:href="#m8c092d7c2d" x="1019.20929" y="272.008895" style="stroke: #000000; stroke-width: 0.8"/>
      </g>
     </g>
     <g id="text_43">
      <!-- 60 -->
      <g transform="translate(1013.65929 287.808895) scale(0.1 -0.1)">
       <defs>
        <path id="NotoSansCJKjp-Regular-17" d="M 1926 -83 
C 2656 -83 3277 531 3277 1440 
C 3277 2426 2765 2912 1971 2912 
C 1606 2912 1197 2701 909 2349 
C 934 3802 1466 4294 2118 4294 
C 2400 4294 2682 4154 2861 3936 
L 3194 4294 
C 2931 4576 2579 4774 2093 4774 
C 1184 4774 358 4077 358 2240 
C 358 691 1030 -83 1926 -83 
z
M 922 1882 
C 1229 2317 1587 2477 1875 2477 
C 2445 2477 2720 2074 2720 1440 
C 2720 800 2374 378 1926 378 
C 1338 378 986 909 922 1882 
z
" transform="scale(0.015625)"/>
       </defs>
       <use xlink:href="#NotoSansCJKjp-Regular-17"/>
       <use xlink:href="#NotoSansCJKjp-Regular-11" transform="translate(55.5 0)"/>
      </g>
     </g>
    </g>
    <g id="xtick_26">
     <g id="line2d_77">
      <path d="M 1058.946617 272.008895 
L 1058.946617 23.76 
" clip-path="url(#p643858adcf)" style="fill: none; stroke: #b0b0b0; stroke-opacity: 0.2; stroke-width: 0.8; stroke-linecap: square"/>
     </g>
     <g id="line2d_78">
      <g>
       <use xlink:href="#m8c092d7c2d" x="1058.946617" y="272.008895" style="stroke: #000000; stroke-width: 0.8"/>
      </g>
     </g>
     <g id="text_44">
      <!-- 70 -->
      <g transform="translate(1053.396617 287.808895) scale(0.1 -0.1)">
       <defs>
        <path id="NotoSansCJKjp-Regular-18" d="M 1267 0 
L 1875 0 
C 1952 1837 2150 2931 3251 4339 
L 3251 4691 
L 314 4691 
L 314 4192 
L 2592 4192 
C 1670 2912 1350 1779 1267 0 
z
" transform="scale(0.015625)"/>
       </defs>
       <use xlink:href="#NotoSansCJKjp-Regular-18"/>
       <use xlink:href="#NotoSansCJKjp-Regular-11" transform="translate(55.5 0)"/>
      </g>
     </g>
    </g>
    <g id="text_45">
     <!-- 时间 / h -->
     <g transform="translate(906.603767 301.808895) scale(0.1 -0.1)">
      <use xlink:href="#NotoSansCJKjp-Regular-4f11"/>
      <use xlink:href="#NotoSansCJKjp-Regular-a811" transform="translate(100 0)"/>
      <use xlink:href="#NotoSansCJKjp-Regular-1" transform="translate(200 0)"/>
      <use xlink:href="#NotoSansCJKjp-Regular-10" transform="translate(222.40625 0)"/>
      <use xlink:href="#NotoSansCJKjp-Regular-1" transform="translate(261.609375 0)"/>
      <use xlink:href="#NotoSansCJKjp-Regular-49" transform="translate(284.015625 0)"/>
     </g>
    </g>
   </g>
   <g id="matplotlib.axis_6">
    <g id="ytick_13">
     <g id="line2d_79">
      <path d="M 766.479888 260.162059 
L 1081.19952 260.162059 
" clip-path="url(#p643858adcf)" style="fill: none; stroke: #b0b0b0; stroke-opacity: 0.2; stroke-width: 0.8; stroke-linecap: square"/>
     </g>
     <g id="line2d_80">
      <g>
       <use xlink:href="#mb834122ba8" x="766.479888" y="260.162059" style="stroke: #000000; stroke-width: 0.8"/>
      </g>
     </g>
     <g id="text_46">
      <!-- 1.2 -->
      <g transform="translate(745.600201 264.562059) scale(0.1 -0.1)">
       <use xlink:href="#NotoSansCJKjp-Regular-12"/>
       <use xlink:href="#NotoSansCJKjp-Regular-f" transform="translate(55.5 0)"/>
       <use xlink:href="#NotoSansCJKjp-Regular-13" transform="translate(83.296875 0)"/>
      </g>
     </g>
    </g>
    <g id="ytick_14">
     <g id="line2d_81">
      <path d="M 766.479888 232.022307 
L 1081.19952 232.022307 
" clip-path="url(#p643858adcf)" style="fill: none; stroke: #b0b0b0; stroke-opacity: 0.2; stroke-width: 0.8; stroke-linecap: square"/>
     </g>
     <g id="line2d_82">
      <g>
       <use xlink:href="#mb834122ba8" x="766.479888" y="232.022307" style="stroke: #000000; stroke-width: 0.8"/>
      </g>
     </g>
     <g id="text_47">
      <!-- 1.3 -->
      <g transform="translate(745.600201 236.422307) scale(0.1 -0.1)">
       <use xlink:href="#NotoSansCJKjp-Regular-12"/>
       <use xlink:href="#NotoSansCJKjp-Regular-f" transform="translate(55.5 0)"/>
       <use xlink:href="#NotoSansCJKjp-Regular-14" transform="translate(83.296875 0)"/>
      </g>
     </g>
    </g>
    <g id="ytick_15">
     <g id="line2d_83">
      <path d="M 766.479888 203.882555 
L 1081.19952 203.882555 
" clip-path="url(#p643858adcf)" style="fill: none; stroke: #b0b0b0; stroke-opacity: 0.2; stroke-width: 0.8; stroke-linecap: square"/>
     </g>
     <g id="line2d_84">
      <g>
       <use xlink:href="#mb834122ba8" x="766.479888" y="203.882555" style="stroke: #000000; stroke-width: 0.8"/>
      </g>
     </g>
     <g id="text_48">
      <!-- 1.4 -->
      <g transform="translate(745.600201 208.282555) scale(0.1 -0.1)">
       <use xlink:href="#NotoSansCJKjp-Regular-12"/>
       <use xlink:href="#NotoSansCJKjp-Regular-f" transform="translate(55.5 0)"/>
       <use xlink:href="#NotoSansCJKjp-Regular-15" transform="translate(83.296875 0)"/>
      </g>
     </g>
    </g>
    <g id="ytick_16">
     <g id="line2d_85">
      <path d="M 766.479888 175.742802 
L 1081.19952 175.742802 
" clip-path="url(#p643858adcf)" style="fill: none; stroke: #b0b0b0; stroke-opacity: 0.2; stroke-width: 0.8; stroke-linecap: square"/>
     </g>
     <g id="line2d_86">
      <g>
       <use xlink:href="#mb834122ba8" x="766.479888" y="175.742802" style="stroke: #000000; stroke-width: 0.8"/>
      </g>
     </g>
     <g id="text_49">
      <!-- 1.5 -->
      <g transform="translate(745.600201 180.142802) scale(0.1 -0.1)">
       <use xlink:href="#NotoSansCJKjp-Regular-12"/>
       <use xlink:href="#NotoSansCJKjp-Regular-f" transform="translate(55.5 0)"/>
       <use xlink:href="#NotoSansCJKjp-Regular-16" transform="translate(83.296875 0)"/>
      </g>
     </g>
    </g>
    <g id="ytick_17">
     <g id="line2d_87">
      <path d="M 766.479888 147.60305 
L 1081.19952 147.60305 
" clip-path="url(#p643858adcf)" style="fill: none; stroke: #b0b0b0; stroke-opacity: 0.2; stroke-width: 0.8; stroke-linecap: square"/>
     </g>
     <g id="line2d_88">
      <g>
       <use xlink:href="#mb834122ba8" x="766.479888" y="147.60305" style="stroke: #000000; stroke-width: 0.8"/>
      </g>
     </g>
     <g id="text_50">
      <!-- 1.6 -->
      <g transform="translate(745.600201 152.00305) scale(0.1 -0.1)">
       <use xlink:href="#NotoSansCJKjp-Regular-12"/>
       <use xlink:href="#NotoSansCJKjp-Regular-f" transform="translate(55.5 0)"/>
       <use xlink:href="#NotoSansCJKjp-Regular-17" transform="translate(83.296875 0)"/>
      </g>
     </g>
    </g>
    <g id="ytick_18">
     <g id="line2d_89">
      <path d="M 766.479888 119.463298 
L 1081.19952 119.463298 
" clip-path="url(#p643858adcf)" style="fill: none; stroke: #b0b0b0; stroke-opacity: 0.2; stroke-width: 0.8; stroke-linecap: square"/>
     </g>
     <g id="line2d_90">
      <g>
       <use xlink:href="#mb834122ba8" x="766.479888" y="119.463298" style="stroke: #000000; stroke-width: 0.8"/>
      </g>
     </g>
     <g id="text_51">
      <!-- 1.7 -->
      <g transform="translate(745.600201 123.863298) scale(0.1 -0.1)">
       <use xlink:href="#NotoSansCJKjp-Regular-12"/>
       <use xlink:href="#NotoSansCJKjp-Regular-f" transform="translate(55.5 0)"/>
       <use xlink:href="#NotoSansCJKjp-Regular-18" transform="translate(83.296875 0)"/>
      </g>
     </g>
    </g>
    <g id="ytick_19">
     <g id="line2d_91">
      <path d="M 766.479888 91.323545 
L 1081.19952 91.323545 
" clip-path="url(#p643858adcf)" style="fill: none; stroke: #b0b0b0; stroke-opacity: 0.2; stroke-width: 0.8; stroke-linecap: square"/>
     </g>
     <g id="line2d_92">
      <g>
       <use xlink:href="#mb834122ba8" x="766.479888" y="91.323545" style="stroke: #000000; stroke-width: 0.8"/>
      </g>
     </g>
     <g id="text_52">
      <!-- 1.8 -->
      <g transform="translate(745.600201 95.723545) scale(0.1 -0.1)">
       <defs>
        <path id="NotoSansCJKjp-Regular-19" d="M 1792 -83 
C 2669 -83 3258 448 3258 1126 
C 3258 1773 2880 2125 2470 2362 
L 2470 2394 
C 2746 2611 3091 3034 3091 3526 
C 3091 4250 2605 4762 1805 4762 
C 1075 4762 518 4282 518 3571 
C 518 3078 813 2726 1152 2490 
L 1152 2464 
C 723 2234 294 1792 294 1165 
C 294 442 922 -83 1792 -83 
z
M 2112 2547 
C 1555 2765 1050 3014 1050 3571 
C 1050 4026 1363 4326 1798 4326 
C 2298 4326 2592 3962 2592 3494 
C 2592 3149 2426 2829 2112 2547 
z
M 1798 352 
C 1235 352 813 717 813 1216 
C 813 1664 1082 2035 1459 2278 
C 2125 2010 2701 1779 2701 1146 
C 2701 678 2342 352 1798 352 
z
" transform="scale(0.015625)"/>
       </defs>
       <use xlink:href="#NotoSansCJKjp-Regular-12"/>
       <use xlink:href="#NotoSansCJKjp-Regular-f" transform="translate(55.5 0)"/>
       <use xlink:href="#NotoSansCJKjp-Regular-19" transform="translate(83.296875 0)"/>
      </g>
     </g>
    </g>
    <g id="ytick_20">
     <g id="line2d_93">
      <path d="M 766.479888 63.183793 
L 1081.19952 63.183793 
" clip-path="url(#p643858adcf)" style="fill: none; stroke: #b0b0b0; stroke-opacity: 0.2; stroke-width: 0.8; stroke-linecap: square"/>
     </g>
     <g id="line2d_94">
      <g>
       <use xlink:href="#mb834122ba8" x="766.479888" y="63.183793" style="stroke: #000000; stroke-width: 0.8"/>
      </g>
     </g>
     <g id="text_53">
      <!-- 1.9 -->
      <g transform="translate(745.600201 67.583793) scale(0.1 -0.1)">
       <defs>
        <path id="NotoSansCJKjp-Regular-1a" d="M 1504 -83 
C 2381 -83 3206 646 3206 2547 
C 3206 4038 2528 4774 1626 4774 
C 896 4774 282 4166 282 3251 
C 282 2285 794 1779 1574 1779 
C 1965 1779 2368 2003 2656 2349 
C 2611 896 2086 403 1485 403 
C 1178 403 896 538 691 762 
L 371 397 
C 634 122 992 -83 1504 -83 
z
M 2650 2842 
C 2336 2394 1984 2214 1670 2214 
C 1114 2214 832 2624 832 3251 
C 832 3898 1178 4320 1632 4320 
C 2227 4320 2586 3808 2650 2842 
z
" transform="scale(0.015625)"/>
       </defs>
       <use xlink:href="#NotoSansCJKjp-Regular-12"/>
       <use xlink:href="#NotoSansCJKjp-Regular-f" transform="translate(55.5 0)"/>
       <use xlink:href="#NotoSansCJKjp-Regular-1a" transform="translate(83.296875 0)"/>
      </g>
     </g>
    </g>
    <g id="ytick_21">
     <g id="line2d_95">
      <path d="M 766.479888 35.044041 
L 1081.19952 35.044041 
" clip-path="url(#p643858adcf)" style="fill: none; stroke: #b0b0b0; stroke-opacity: 0.2; stroke-width: 0.8; stroke-linecap: square"/>
     </g>
     <g id="line2d_96">
      <g>
       <use xlink:href="#mb834122ba8" x="766.479888" y="35.044041" style="stroke: #000000; stroke-width: 0.8"/>
      </g>
     </g>
     <g id="text_54">
      <!-- 2.0 -->
      <g transform="translate(745.600201 39.444041) scale(0.1 -0.1)">
       <use xlink:href="#NotoSansCJKjp-Regular-13"/>
       <use xlink:href="#NotoSansCJKjp-Regular-f" transform="translate(55.5 0)"/>
       <use xlink:href="#NotoSansCJKjp-Regular-11" transform="translate(83.296875 0)"/>
      </g>
     </g>
    </g>
    <g id="text_55">
     <!-- 半径 / cm -->
     <g transform="translate(739.809576 169.264916) rotate(-90) scale(0.1 -0.1)">
      <defs>
       <path id="NotoSansCJKjp-Regular-2d90" d="M 941 5037 
C 1242 4582 1555 3968 1677 3590 
L 2138 3789 
C 2010 4173 1683 4768 1376 5210 
L 941 5037 
z
M 4986 5229 
C 4800 4774 4467 4141 4198 3757 
L 4621 3590 
C 4890 3968 5229 4550 5491 5050 
L 4986 5229 
z
M 2931 5382 
L 2931 3302 
L 755 3302 
L 755 2829 
L 2931 2829 
L 2931 1798 
L 339 1798 
L 339 1318 
L 2931 1318 
L 2931 -499 
L 3430 -499 
L 3430 1318 
L 6067 1318 
L 6067 1798 
L 3430 1798 
L 3430 2829 
L 5696 2829 
L 5696 3302 
L 3430 3302 
L 3430 5382 
L 2931 5382 
z
" transform="scale(0.015625)"/>
       <path id="NotoSansCJKjp-Regular-43e6" d="M 1651 5370 
C 1357 4902 762 4352 230 4006 
C 307 3910 435 3718 486 3616 
C 1082 4000 1715 4621 2106 5190 
L 1651 5370 
z
M 5178 4627 
C 4934 4192 4582 3821 4173 3507 
C 3770 3821 3443 4198 3226 4627 
L 5178 4627 
z
M 2400 5037 
L 2400 4627 
L 3155 4627 
L 2803 4506 
C 3053 4019 3386 3603 3795 3245 
C 3264 2918 2656 2675 2042 2522 
C 2131 2426 2246 2253 2291 2138 
C 2950 2323 3597 2592 4160 2963 
C 4678 2605 5286 2336 5958 2170 
C 6022 2291 6150 2483 6259 2579 
C 5626 2714 5043 2938 4550 3245 
C 5094 3680 5542 4230 5824 4915 
L 5517 5056 
L 5427 5037 
L 2400 5037 
z
M 2483 1542 
L 2483 1120 
L 3917 1120 
L 3917 115 
L 2074 115 
L 2074 -314 
L 6138 -314 
L 6138 115 
L 4390 115 
L 4390 1120 
L 5792 1120 
L 5792 1542 
L 4390 1542 
L 4390 2406 
L 3917 2406 
L 3917 1542 
L 2483 1542 
z
M 1862 4109 
C 1453 3411 781 2726 147 2285 
C 230 2182 371 1952 422 1850 
C 678 2042 934 2272 1190 2528 
L 1190 -506 
L 1658 -506 
L 1658 3046 
C 1901 3334 2118 3635 2298 3942 
L 1862 4109 
z
" transform="scale(0.015625)"/>
       <path id="NotoSansCJKjp-Regular-44" d="M 1958 -83 
C 2374 -83 2771 83 3085 352 
L 2829 749 
C 2611 557 2330 403 2010 403 
C 1370 403 934 934 934 1734 
C 934 2534 1395 3072 2029 3072 
C 2298 3072 2522 2950 2720 2771 
L 3014 3155 
C 2771 3373 2458 3565 2003 3565 
C 1107 3565 333 2893 333 1734 
C 333 582 1037 -83 1958 -83 
z
" transform="scale(0.015625)"/>
       <path id="NotoSansCJKjp-Regular-4e" d="M 589 0 
L 1178 0 
L 1178 2522 
C 1491 2880 1786 3053 2048 3053 
C 2490 3053 2694 2778 2694 2125 
L 2694 0 
L 3277 0 
L 3277 2522 
C 3603 2880 3885 3053 4154 3053 
C 4595 3053 4800 2778 4800 2125 
L 4800 0 
L 5382 0 
L 5382 2202 
C 5382 3085 5043 3565 4333 3565 
C 3904 3565 3546 3290 3181 2899 
C 3040 3309 2758 3565 2221 3565 
C 1805 3565 1446 3302 1139 2970 
L 1126 2970 
L 1069 3475 
L 589 3475 
L 589 0 
z
" transform="scale(0.015625)"/>
      </defs>
      <use xlink:href="#NotoSansCJKjp-Regular-2d90"/>
      <use xlink:href="#NotoSansCJKjp-Regular-43e6" transform="translate(100 0)"/>
      <use xlink:href="#NotoSansCJKjp-Regular-1" transform="translate(200 0)"/>
      <use xlink:href="#NotoSansCJKjp-Regular-10" transform="translate(222.40625 0)"/>
      <use xlink:href="#NotoSansCJKjp-Regular-1" transform="translate(261.609375 0)"/>
      <use xlink:href="#NotoSansCJKjp-Regular-44" transform="translate(284.015625 0)"/>
      <use xlink:href="#NotoSansCJKjp-Regular-4e" transform="translate(335.015625 0)"/>
     </g>
    </g>
   </g>
   <g id="line2d_97">
    <path d="M 780.785326 35.044041 
L 782.772192 70.781526 
L 784.759059 93.01193 
L 786.745925 118.619105 
L 788.732792 140.568112 
L 792.706524 161.110131 
L 794.693391 172.928827 
L 796.680257 182.214945 
L 798.667123 190.656871 
L 800.65399 197.129014 
L 802.640856 204.726747 
L 804.627722 211.19889 
L 810.588322 226.112959 
L 812.575188 228.926934 
L 814.562054 232.303704 
L 816.548921 234.554885 
L 818.535787 237.36886 
L 820.522653 239.62004 
L 822.50952 241.589823 
L 824.496386 243.278208 
L 826.483252 245.247991 
L 828.470119 246.654978 
L 834.430718 250.031748 
L 836.417584 250.875941 
L 838.404451 252.001531 
L 842.378183 253.689916 
L 846.351916 254.815506 
L 848.338782 255.096904 
L 852.312515 256.222494 
L 868.207446 258.473674 
L 870.194312 258.473674 
L 872.181179 258.755072 
L 874.168045 258.755072 
L 876.154911 259.036469 
L 878.141778 259.036469 
L 880.128644 259.317867 
L 886.089243 259.317867 
L 888.07611 259.599264 
L 896.023575 259.599264 
L 898.010441 259.880662 
L 917.879105 259.880662 
L 919.865971 260.162059 
L 1009.274958 260.162059 
L 1011.261824 260.443457 
L 1045.038552 260.443457 
L 1047.025419 260.724854 
L 1066.894082 260.724854 
L 1066.894082 260.724854 
" clip-path="url(#p643858adcf)" style="fill: none; stroke: #da8051; stroke-width: 1.5; stroke-linecap: square"/>
   </g>
   <g id="patch_9">
    <path d="M 766.479888 272.008895 
L 766.479888 23.76 
" style="fill: none; stroke: #000000; stroke-width: 0.8; stroke-linejoin: miter; stroke-linecap: square"/>
   </g>
   <g id="patch_10">
    <path d="M 766.479888 272.008895 
L 1081.19952 272.008895 
" style="fill: none; stroke: #000000; stroke-width: 0.8; stroke-linejoin: miter; stroke-linecap: square"/>
   </g>
   <g id="text_56">
    <!-- A：药材收缩（附件2） -->
    <g transform="translate(862.861892 17.76) scale(0.12 -0.12)">
     <defs>
      <path id="NotoSansCJKjp-Regular-4dc4" d="M 3642 5376 
C 3405 4320 2995 3302 2438 2650 
L 2438 5344 
L 1965 5344 
L 1965 1677 
L 1120 1446 
L 1120 4640 
L 659 4640 
L 659 1331 
L 224 1222 
L 378 736 
L 1965 1229 
L 1965 -512 
L 2438 -512 
L 2438 2611 
C 2554 2522 2739 2362 2810 2278 
C 3002 2515 3187 2803 3354 3117 
C 3546 2374 3808 1702 4147 1133 
C 3718 614 3181 211 2490 -96 
C 2586 -205 2726 -416 2778 -531 
C 3443 -205 3987 211 4422 723 
C 4819 186 5312 -237 5914 -525 
C 5984 -397 6138 -211 6240 -115 
C 5626 147 5133 576 4730 1120 
C 5216 1824 5549 2682 5786 3731 
L 6170 3731 
L 6170 4186 
L 3808 4186 
C 3936 4538 4038 4909 4128 5280 
L 3642 5376 
z
M 5286 3731 
C 5107 2874 4838 2150 4454 1549 
C 4090 2176 3827 2918 3654 3731 
L 5286 3731 
z
" transform="scale(0.015625)"/>
      <path id="NotoSansCJKjp-Regular-7c54" d="M 282 339 
L 397 -115 
C 934 90 1619 358 2285 614 
L 2202 1018 
C 1485 755 768 493 282 339 
z
M 403 2707 
C 493 2746 634 2778 1331 2861 
C 1082 2451 851 2125 749 1997 
C 563 1766 429 1600 301 1581 
C 352 1466 416 1254 442 1165 
C 550 1242 749 1306 2035 1626 
L 2016 1862 
L 2016 2016 
L 1075 1805 
C 1517 2374 1946 3066 2310 3750 
L 1926 3968 
C 1824 3738 1702 3507 1574 3283 
L 870 3219 
C 1242 3776 1600 4480 1882 5165 
L 1453 5357 
C 1203 4582 749 3750 608 3539 
C 474 3315 365 3168 250 3142 
C 307 3021 378 2803 403 2707 
z
M 3021 3917 
C 2854 3238 2490 2394 2016 1862 
C 2093 1786 2214 1638 2272 1549 
C 2419 1709 2554 1888 2682 2086 
L 2682 -512 
L 3091 -512 
L 3091 2854 
C 3238 3174 3354 3501 3450 3808 
L 3021 3917 
z
M 3597 2586 
L 3597 -506 
L 4013 -506 
L 4013 -205 
L 5466 -205 
L 5466 -474 
L 5901 -474 
L 5901 2586 
L 4749 2586 
L 4915 3232 
L 5990 3232 
L 5990 3629 
L 3501 3629 
L 3501 3232 
L 4442 3232 
C 4403 3021 4358 2784 4307 2586 
L 3597 2586 
z
M 3776 5254 
C 3866 5107 3962 4922 4038 4755 
L 2362 4755 
L 2362 3712 
L 2803 3712 
L 2803 4352 
L 5626 4352 
L 5626 3802 
L 6086 3802 
L 6086 4755 
L 4525 4755 
C 4442 4941 4301 5197 4179 5395 
L 3776 5254 
z
M 4013 1024 
L 5466 1024 
L 5466 186 
L 4013 186 
L 4013 1024 
z
M 4013 1414 
L 4013 2189 
L 5466 2189 
L 5466 1414 
L 4013 1414 
z
" transform="scale(0.015625)"/>
     </defs>
     <use xlink:href="#NotoSansCJKjp-Regular-22"/>
     <use xlink:href="#NotoSansCJKjp-Regular-e6c0" transform="translate(60.796875 0)"/>
     <use xlink:href="#NotoSansCJKjp-Regular-8547" transform="translate(160.796875 0)"/>
     <use xlink:href="#NotoSansCJKjp-Regular-514d" transform="translate(260.796875 0)"/>
     <use xlink:href="#NotoSansCJKjp-Regular-4dc4" transform="translate(360.796875 0)"/>
     <use xlink:href="#NotoSansCJKjp-Regular-7c54" transform="translate(460.796875 0)"/>
     <use xlink:href="#NotoSansCJKjp-Regular-e6ae" transform="translate(560.796875 0)"/>
     <use xlink:href="#NotoSansCJKjp-Regular-a86d" transform="translate(660.796875 0)"/>
     <use xlink:href="#NotoSansCJKjp-Regular-266d" transform="translate(760.796875 0)"/>
     <use xlink:href="#NotoSansCJKjp-Regular-13" transform="translate(860.796875 0)"/>
     <use xlink:href="#NotoSansCJKjp-Regular-e6af" transform="translate(916.296875 0)"/>
    </g>
   </g>
  </g>
 </g>
 <defs>
  <clipPath id="p7888226612">
   <rect x="39.890625" y="23.76" width="314.719632" height="248.248895"/>
  </clipPath>
  <clipPath id="p8517c038ad">
   <rect x="409.089944" y="23.76" width="314.719632" height="248.248895"/>
  </clipPath>
  <clipPath id="p643858adcf">
   <rect x="766.479888" y="23.76" width="314.719632" height="248.248895"/>
  </clipPath>
 </defs>
</svg>
